<?xml version="1.0" encoding="UTF-8" standalone="no"?>
<!-- Created with Inkscape (http://www.inkscape.org/) -->

<svg
   xmlns:dc="http://purl.org/dc/elements/1.1/"
   xmlns:cc="http://creativecommons.org/ns#"
   xmlns:rdf="http://www.w3.org/1999/02/22-rdf-syntax-ns#"
   xmlns:svg="http://www.w3.org/2000/svg"
   xmlns="http://www.w3.org/2000/svg"
   xmlns:sodipodi="http://sodipodi.sourceforge.net/DTD/sodipodi-0.dtd"
   xmlns:inkscape="http://www.inkscape.org/namespaces/inkscape"
   version="1.1"
   id="svg815"
   width="426.66666"
   height="426.66666"
   viewBox="0 0 426.66666 426.66666"
   sodipodi:docname="logo.svg"
   inkscape:version="0.92.2 (5c3e80d, 2017-08-06)">
  <metadata
     id="metadata821">
    <rdf:RDF>
      <cc:Work
         rdf:about="">
        <dc:format>image/svg+xml</dc:format>
        <dc:type
           rdf:resource="http://purl.org/dc/dcmitype/StillImage" />
        <dc:title></dc:title>
      </cc:Work>
    </rdf:RDF>
  </metadata>
  <defs
     id="defs819" />
  <sodipodi:namedview
     pagecolor="#ffffff"
     bordercolor="#666666"
     borderopacity="1"
     objecttolerance="10"
     gridtolerance="10"
     guidetolerance="10"
     inkscape:pageopacity="0"
     inkscape:pageshadow="2"
     inkscape:window-width="1920"
     inkscape:window-height="1017"
     id="namedview817"
     showgrid="false"
     inkscape:zoom="1.4053748"
     inkscape:cx="203.95491"
     inkscape:cy="215.41742"
     inkscape:window-x="-8"
     inkscape:window-y="-8"
     inkscape:window-maximized="1"
     inkscape:current-layer="svg815" />
  <path
     style="fill:#000000;stroke-width:1.33333325"
     d="m 207.96676,423.79076 c -0.72357,-1.90026 -0.57042,-2.05341 0.7464,-0.7464 0.91123,0.90446 1.3209,1.98032 0.91038,2.39084 -0.41052,0.41052 -1.15607,-0.32948 -1.65678,-1.64444 z m 23.29002,-6.46933 c 0.0233,-0.69016 0.92333,-2.41952 2,-3.84301 1.07668,-1.4235 1.93852,-2.0235 1.9152,-1.33334 -0.0233,0.69016 -0.92334,2.41952 -2,3.84302 -1.07668,1.42349 -1.93852,2.02349 -1.9152,1.33333 z m -29.70907,-1.50728 c -2.68635,-0.70201 -3.1728,-3.08089 -0.63001,-3.08089 0.93684,0 3.04202,-0.93767 4.67821,-2.0837 2.65193,-1.85748 2.75652,-2.30206 0.96335,-4.09524 -1.10635,-1.10634 -2.01155,-2.97144 -2.01155,-4.14465 0,-1.1732 -1.05,-3.33209 -2.33333,-4.79751 -2.24282,-2.56104 -2.22988,-2.6255 0.33333,-1.66156 4.26684,1.60463 11.23192,1.95892 15.34133,0.78036 2.80315,-0.80393 3.98843,-0.59688 4.52048,0.78967 0.50319,1.31127 -0.37445,1.93417 -2.90365,2.06087 -3.1432,0.15745 -3.22623,0.25836 -0.62483,0.7594 3.34167,0.64364 4.13126,3.05902 1,3.05902 -1.1,0 -2.00688,0.45 -2.01529,1 -0.008,0.55 -2.47167,2.1773 -5.47388,3.6162 -3.00223,1.43892 -5.98049,3.98892 -6.61837,5.66667 -0.63788,1.67776 -1.32464,2.98087 -1.52612,2.8958 -0.20148,-0.0851 -1.41634,-0.42907 -2.69967,-0.76444 z m 27.55781,-2.18995 c 0.42654,-1.3433 0.77552,-3.2933 0.77552,-4.33333 0,-1.04001 0.6,-1.89095 1.33334,-1.89095 2.00638,0 1.60336,3.15892 -0.77552,6.0785 -1.92975,2.36837 -2.04298,2.38074 -1.33334,0.14578 z m -76.46321,-10.77696 c -2.1086,-2.54072 -1.47761,-3.79278 1.10653,-2.19569 0.9848,0.60864 1.5455,1.84181 1.24598,2.74037 -0.38735,1.16207 -1.06655,1.0048 -2.35251,-0.54468 z m 40.94153,-3.32968 c -1.24278,-2.86862 -2.59962,-6.91862 -3.0152,-9 -0.68958,-3.45366 -0.55728,-3.37657 1.51424,0.88236 5.93186,12.19554 6.33971,13.33334 4.77936,13.33334 -0.56033,0 -2.03562,-2.34707 -3.2784,-5.2157 z m -31.9528,2.97155 c 0.9625,-0.38516 2.1125,-0.3378 2.55556,0.1052 0.44306,0.44305 -0.34445,0.75819 -1.75,0.70029 -1.55326,-0.064 -1.8692,-0.37992 -0.80556,-0.80554 z m 5.61667,-1.01623 c -0.0184,-0.69321 1.48155,-2.84156 3.33305,-4.77413 1.85152,-1.93256 3.59987,-4.6654 3.88522,-6.07296 0.28536,-1.40756 0.93466,-3.6092 1.44293,-4.89253 0.54399,-1.37354 0.31697,-2.33334 -0.55188,-2.33334 -0.8118,0 -1.92599,0 -2.47599,0 -0.55,0 -1,0.68462 -1,1.52135 0,3.13631 -4.11434,4.27999 -8.4666,2.35348 -2.31004,-1.02252 -4.20006,-2.29551 -4.20006,-2.82885 0,-0.53335 -1.95,-1.58447 -4.33334,-2.33583 l -4.33333,-1.36609 4.66667,0.54788 c 2.56666,0.30132 5.86666,0.97273 7.33333,1.49202 2.29815,0.81368 2.24788,0.63171 -0.36375,-1.3168 -1.66672,-1.24353 -5.11402,-2.36736 -7.66068,-2.4974 -2.54665,-0.13 -4.63297,-0.68642 -4.63626,-1.23642 -0.003,-0.55 0.59402,-1 1.32736,-1 0.73333,0 1.33333,-0.9 1.33333,-2 0,-2.32791 2.10068,-2.66115 3.41093,-0.54111 0.49591,0.80239 2.33132,1.1856 4.0787,0.85156 1.74737,-0.33403 3.17704,-0.1044 3.17704,0.51037 0,0.61474 1.53081,2.12072 3.4018,3.34664 2.51958,1.65091 3.79074,1.83999 4.9016,0.72914 1.00164,-1.00164 2.02846,-1.06108 3.09138,-0.17894 1.56464,1.29855 3.30926,-4.49086 4.03331,-13.38433 1.53015,-18.79456 5.591,-34.66667 8.86941,-34.66667 0.72663,0 0.95654,-0.95013 0.51091,-2.11141 -0.44563,-1.16128 -0.35981,-1.89203 0.19068,-1.62388 0.55049,0.26813 2.80091,1.29299 5.00091,2.27743 2.2,0.98444 5.29278,2.38596 6.87286,3.11448 1.58007,0.72852 3.4672,0.95725 4.19362,0.5083 0.72641,-0.44894 1.68362,0.12934 2.12714,1.28512 1.40615,3.66439 0.88403,4.75431 -1.86029,3.8833 -1.52975,-0.48552 -2.66667,-0.2396 -2.66667,0.57681 0,0.78276 -1.05,1.49417 -2.33333,1.58093 -1.28333,0.0868 -0.53333,0.59252 1.66667,1.12388 3.58284,0.86538 3.72189,1.07706 1.33333,2.02984 -1.46667,0.58506 -5.51667,3.80675 -9,7.15934 -6.24345,6.00912 -9.01048,6.55076 -3.5,0.68512 1.55833,-1.65876 2.83333,-4.54744 2.83333,-6.41927 0,-1.87183 0.59847,-3.40332 1.32992,-3.40332 0.73772,0 0.5908,-0.8906 -0.32992,-2 -2.47118,-2.9776 -3.71146,-2.42507 -2.993,1.33333 0.4646,2.43043 0.0603,3.33334 -1.49282,3.33334 -2.09051,0 -3.20872,2.70696 -3.8555,9.33333 -0.29485,3.02089 0.14339,3.33333 4.67554,3.33333 5.8452,0 6.61154,1.59036 1.33245,2.76519 -7.49,1.66687 -8.33333,2.13825 -8.33333,4.658 0,1.41724 0.675,2.42681 1.5,2.24348 0.825,-0.18333 1.80284,0.50019 2.17297,1.51893 0.41216,1.13442 0.0892,1.49147 -0.83333,0.92131 -0.92774,-0.57337 -1.50631,0.0933 -1.50631,1.73572 0,1.46667 0.6,3.03748 1.33333,3.49071 0.73334,0.45322 1.34252,-0.26136 1.35375,-1.58798 0.0151,-1.77969 0.30845,-1.95794 1.11912,-0.67994 0.7988,1.25929 2.48848,0.036 6.19016,-4.48139 4.32968,-5.2838 5.05835,-7.08903 4.87012,-12.06541 -0.16264,-4.29991 0.28649,-5.85195 1.69348,-5.85195 2.58412,0 4.28945,13.25483 2.20615,17.14752 -0.82542,1.54229 -1.47315,5.06505 -1.4394,7.82833 0.18672,15.29286 0.0651,16.41876 -1.85395,17.15515 -1.08408,0.416 -1.64473,1.60671 -1.24592,2.64601 0.39883,1.03931 -0.009,1.88966 -0.90636,1.88966 -1.10912,0 -1.30073,-0.96055 -0.59844,-3 1.68036,-4.8798 2.31828,-23.66667 0.80361,-23.66667 -1.58034,0 -6.85898,7.08475 -6.85898,9.20583 0,0.80346 -0.64043,1.46084 -1.42319,1.46084 -0.80751,0 -1.10124,1.2978 -0.67897,3 0.40932,1.65 0.39368,2.23178 -0.0348,1.29285 -0.49132,-1.07673 -2.26415,0.53508 -4.80088,4.36484 -2.21206,3.33959 -5.28355,6.74719 -6.82556,7.57244 -2.78739,1.49176 -2.78962,1.47805 -0.38534,-2.36483 1.33007,-2.12592 3.45531,-4.77861 4.72275,-5.89488 3.15255,-2.77652 4.3048,-9.3999 2.14727,-12.34294 -1.56184,-2.13046 -1.8234,-2.15335 -2.56364,-0.22428 -0.4534,1.18153 -0.82436,3.56374 -0.82436,5.29382 0,1.73008 -0.6,3.51642 -1.33334,3.96964 -0.73333,0.45323 -1.33333,2.01187 -1.33333,3.46366 0,2.57594 -10.56727,15.1069 -10.63333,12.6093 z m 63.24517,-0.82833 c -0.48337,-0.78212 -0.5929,-1.708 -0.2434,-2.05751 0.3495,-0.3495 0.99075,0.29042 1.425,1.42204 0.90158,2.34948 0.1332,2.76275 -1.1816,0.63547 z m -71.2785,-1.21657 c -1.98163,-1.30843 -1.6412,-1.52343 3,-1.89472 0.91666,-0.0733 2.4343,-1.03334 3.37253,-2.13334 1.45615,-1.70722 1.65133,-1.51204 1.33333,1.33334 -0.40636,3.63601 -4.24645,4.97889 -7.70586,2.69472 z m 65.99689,-11.08696 c -0.96189,-7.54022 -0.15324,-17.21919 1.68325,-20.14726 0.92042,-1.46748 1.07576,-2.15961 1.45011,-6.4605 0.24719,-2.84006 2.86975,-3.14468 2.86975,-0.33334 0,3.34227 2.24365,2.24019 3.98169,-1.95578 0.9012,-2.1757 2.56053,-4.72099 3.68741,-5.65622 1.76394,-1.46394 1.92942,-1.28465 1.1899,1.28912 -0.47246,1.64426 -1.17887,4.12476 -1.56983,5.51226 -0.39095,1.38749 -1.82984,2.81533 -3.19753,3.173 -4.54236,1.18785 -6.68858,6.48325 -6.90067,17.02622 -0.27619,13.7284 -1.91263,17.59779 -3.19408,7.5525 z m -75.33023,2.47093 c 0,-1.14328 0.6,-2.07869 1.33334,-2.07869 0.73333,0 1.33333,0.56458 1.33333,1.25464 0,0.69005 -0.6,1.62546 -1.33333,2.07869 -0.73334,0.45323 -1.33334,-0.11133 -1.33334,-1.25464 z m 2.18942,-20.43888 c -0.42803,-0.69256 -0.20352,-4.79033 0.4989,-9.10617 1.2513,-7.68827 -0.23814,-22.52235 -2.7255,-27.14467 -0.65947,-1.22551 -0.22983,-2.56544 1.1621,-3.62427 1.40855,-1.07145 1.60476,-1.69525 0.54175,-1.7223 -2.29508,-0.0584 -2.11705,-2.70907 0.18195,-2.70907 1.15485,0 2.16994,2.14292 2.70488,5.71009 0.47096,3.14056 2.01702,7.61879 3.4357,9.95162 1.61104,2.64914 2.07084,4.55584 1.22472,5.07876 -0.74508,0.46048 -1.10916,1.53225 -0.80908,2.38172 0.3001,0.84946 -0.0271,3.04448 -0.72712,4.87781 -0.7,1.83333 -1.53924,6.02872 -1.86497,9.32309 -0.60461,6.1147 -2.22731,9.2422 -3.62333,6.98339 z m -24.85607,-16.81771 c 0,-0.28118 1.48184,-0.7945 3.29298,-1.14073 1.81114,-0.34621 2.97574,-0.11613 2.58798,0.51124 -0.68277,1.10475 -5.88096,1.66116 -5.88096,0.62949 z m 125.33332,-3.44186 c 0,-1.84036 5.06305,-4.2987 7.73655,-3.75643 1.62728,0.33007 0.98794,1.10325 -2.27474,2.75097 -5.28841,2.67076 -5.46181,2.70268 -5.46181,1.00546 z m -41.98656,-2.73532 c 0.46061,-0.7453 1.39603,-1.0099 2.07869,-0.58798 1.84939,1.14298 1.50455,1.94306 -0.83749,1.94306 -1.14328,0 -1.70181,-0.60979 -1.2412,-1.35508 z m 53.98656,-3.51804 c 0,-1.21355 2.26131,-4.36355 5.02513,-7 2.76382,-2.63646 4.8416,-5.73046 4.6173,-6.87556 -0.47487,-2.42428 4.5726,-7.48075 6.0213,-6.03203 0.5394,0.53939 -0.0643,1.56552 -1.3415,2.28029 -1.27723,0.71478 -2.32223,2.70762 -2.32223,4.42855 0,1.9066 -1.82307,4.72963 -4.66667,7.22635 -2.56666,2.25356 -4.66666,5.01572 -4.66666,6.13812 0,1.1224 -0.6,2.04073 -1.33334,2.04073 -0.73333,0 -1.33333,-0.99291 -1.33333,-2.20645 z m -31.25484,-1.08448 c 3.38612,-2.56114 5.36661,-2.58694 3.25484,-0.0424 -0.91292,1.1 -2.60107,2 -3.75143,2 -1.6744,0 -1.57534,-0.39047 0.49659,-1.9576 z m -18.5506,-2.7102 c -2.09299,-1.0916 -4.34299,-1.6525 -5,-1.24644 -0.65701,0.40605 -1.19456,0.13828 -1.19456,-0.59506 0,-2.1633 1.72827,-2.50628 6.33333,-1.25684 2.39284,0.64923 4.33334,2.05426 4.33334,3.13759 0,2.38887 0.18666,2.39051 -4.47211,-0.0392 z m -40.86123,-4.47598 c 0,-1.37034 4.03851,-3.26217 4.9717,-2.32897 0.32452,0.32452 -0.66136,1.25975 -2.19083,2.07829 -1.53045,0.81907 -2.78087,0.93179 -2.78087,0.25068 z m -0.66666,-9.52289 c -0.45323,-0.73333 0.41136,-1.33333 1.9213,-1.33333 1.50995,0 2.74536,0.6 2.74536,1.33333 0,0.73333 -0.86458,1.33333 -1.9213,1.33333 -1.05672,0 -2.29214,-0.6 -2.74536,-1.33333 z m -23.60846,-6.00861 c -0.35348,-2.9286 -0.13618,-5.52472 0.48288,-5.76916 0.61907,-0.24445 1.12558,-0.97561 1.12558,-1.62483 0,-0.6492 -0.7712,-0.88444 -1.71379,-0.52273 -1.03576,0.39747 -1.79869,-0.46939 -1.92837,-2.19104 -0.118,-1.56679 -1.23982,-3.98155 -2.49287,-5.36616 -1.86972,-2.06601 -1.92753,-2.51747 -0.32237,-2.51747 1.07574,0 3.36213,1.90202 5.08084,4.2267 3.23398,4.37418 3.79869,9.93104 1.6104,15.84656 -1.10555,2.98857 -1.25,2.82534 -1.8423,-2.08187 z m 4.27512,2.00861 c 0,-0.73333 0.56459,-1.33333 1.25464,-1.33333 0.69006,0 1.62547,0.6 2.0787,1.33333 0.45322,0.73334 -0.11134,1.33334 -1.25464,1.33334 -1.14328,0 -2.0787,-0.6 -2.0787,-1.33334 z m 91.53204,-12.7037 c 0.42994,-1.12038 2.06111,-2.7018 3.62483,-3.5143 2.61537,-1.3589 2.58419,-1.19572 -0.38928,2.03704 -3.71817,4.0424 -4.32645,4.32012 -3.23555,1.47726 z m -100.86537,-9.72102 c 0,-1.6114 2.5296,-3.49012 3.45427,-2.56546 0.3356,0.3356 -0.30432,1.36914 -1.42204,2.29677 -1.26719,1.05167 -2.03223,1.15283 -2.03223,0.26869 z m 1.60249,-8.2602 c -2.57381,-2.76268 -4.74971,-9.32656 -3.08426,-9.30408 1.07886,0.0145 6.98457,10.93064 6.28958,11.62564 -0.29682,0.29682 -1.73921,-0.74788 -3.20532,-2.32156 z m 15.16312,-4.87137 c -0.46917,-1.22263 -0.30836,-2.76763 0.35735,-3.43333 0.72495,-0.72495 1.21037,0.16658 1.21037,2.22296 0,3.99698 -0.38449,4.29384 -1.56772,1.21037 z m 95.30844,-0.44371 c -0.005,-1.83333 1.47223,-6.93333 3.28475,-11.33333 1.93075,-4.68695 3.32299,-10.76088 3.36183,-14.66667 0.0365,-3.66666 0.9311,-8.46666 1.98806,-10.66666 1.85879,-3.86895 1.89396,-3.75974 1.0735,3.33333 -0.46654,4.03333 -0.95908,10.93333 -1.09455,15.33333 -0.25599,8.31503 -1.45737,12.66667 -3.49696,12.66667 -0.65487,0 -1.19068,0.78532 -1.19068,1.74516 0,0.95984 -0.88092,2.90984 -1.9576,4.33333 -1.8896,2.49827 -1.95796,2.47239 -1.96835,-0.74516 z m -32.07405,-10.66666 c 0,-0.73334 0.63541,-1.33334 1.41203,-1.33334 0.77661,0 1.0412,0.6 0.58797,1.33334 -0.45323,0.73333 -1.08864,1.33333 -1.41203,1.33333 -0.32338,0 -0.58797,-0.6 -0.58797,-1.33333 z m -6,-1.33334 c -0.45323,-0.73333 0.076,-1.33333 1.17596,-1.33333 1.1,0 2.37081,0.6 2.82404,1.33333 0.45323,0.73334 -0.076,1.33334 -1.17596,1.33334 -1.1,0 -2.37081,-0.6 -2.82404,-1.33334 z m 14.66667,-1.33333 c 0.45322,-0.73333 1.08864,-1.33333 1.41202,-1.33333 0.32339,0 0.58798,0.6 0.58798,1.33333 0,0.73333 -0.63542,1.33333 -1.41203,1.33333 -0.77661,0 -1.0412,-0.6 -0.58797,-1.33333 z M 174.1863,269.8175 c 0.66437,-1.99312 3.69474,-3.09052 3.69474,-1.338 0,0.71599 -0.95013,1.66639 -2.11141,2.11201 -1.29855,0.49831 -1.90811,0.20032 -1.58333,-0.77401 z m -4.97192,-2.41757 c -0.45323,-0.73334 -0.22404,-1.33334 0.50929,-1.33334 0.73333,0 1.70415,0.6 2.15737,1.33334 0.45323,0.73333 0.22404,1.33333 -0.50929,1.33333 -0.73333,0 -1.70415,-0.6 -2.15737,-1.33333 z m 14.66666,0 c 0.45323,-0.73334 1.08864,-1.33334 1.41203,-1.33334 0.32339,0 0.58797,0.6 0.58797,1.33334 0,0.73333 -0.63541,1.33333 -1.41202,1.33333 -0.77662,0 -1.0412,-0.6 -0.58798,-1.33333 z m 22,0.16325 c 0,-1.66308 3.42386,-4.29496 4.36415,-3.35467 1.28833,1.28835 -0.50469,4.52475 -2.5068,4.52475 -1.02153,0 -1.85735,-0.52653 -1.85735,-1.17008 z m -70.56139,-2.49659 c 0.0635,-1.40766 0.37316,-1.66884 0.78055,-0.65836 1.02304,2.53756 3.11701,0.57922 2.19305,-2.05101 -0.63524,-1.80829 -0.44532,-1.95855 0.90194,-0.71359 0.93864,0.86738 1.34578,2.51738 0.90476,3.66667 -1.0932,2.84884 -4.91103,2.6542 -4.7803,-0.24371 z m 36.00002,-2.01965 c -4.15843,-2.12171 -5.10509,-4.88993 -1.58148,-4.62451 1.48231,0.11174 2.44636,0.45176 2.14235,0.75578 -0.30402,0.30402 0.77172,1.65832 2.39053,3.00954 3.37809,2.81971 1.79459,3.28068 -2.9514,0.85919 z m 114.92452,-7.64701 c 0,-3.3 0.26003,-4.65 0.57783,-3 0.31781,1.65 0.31781,4.35 0,6 -0.3178,1.65 -0.57783,0.3 -0.57783,-3 z m -148.36314,1.33333 c 0,-0.73333 0.63542,-1.33333 1.41203,-1.33333 0.77661,0 1.0412,0.6 0.58797,1.33333 -0.45322,0.73333 -1.08864,1.33333 -1.41202,1.33333 -0.32339,0 -0.58798,-0.6 -0.58798,-1.33333 z m 103.24242,-13.96969 c -1.81667,-1.81667 -3.4394,-3.21892 -3.60607,-3.11611 -0.16666,0.1028 -2.10302,-0.84901 -4.30302,-2.11517 -2.2,-1.26616 -2.8,-1.90594 -1.33334,-1.42174 2.66372,0.87939 5.8592,1.66142 7.57588,1.85403 1.17546,0.13187 6.8689,8.10201 5.78764,8.10201 -0.44993,0 -2.30442,-1.48636 -4.12109,-3.30302 z m 7.11171,-6.23478 c -3.4719,-1.53128 -5.99736,-3.29412 -5.61214,-3.91742 0.38522,-0.6233 -0.89952,-1.53482 -2.85498,-2.0256 -3.12683,-0.78479 -3.27498,-1.04927 -1.22908,-2.1942 1.31284,-0.73471 2.69277,-0.79254 3.1675,-0.1328 0.46268,0.64301 4.0504,2.64309 7.97272,4.44461 3.92232,1.80152 6.46858,3.49647 5.65836,3.76655 -0.81022,0.27006 -1.13398,1.0398 -0.71946,1.71049 0.98601,1.59541 0.96956,1.59116 -6.38292,-1.65168 z m -91.0993,-4.52852 c 2.8664,-2.14154 5.30572,-2.58602 4.17796,-0.76129 -0.39852,0.64481 -2.08393,1.51497 -3.74536,1.93369 -2.91434,0.73447 -2.92958,0.69316 -0.4326,-1.1724 z m 44.74516,0.61947 c 0,-1.87532 5.08022,-5.91737 6.12459,-4.87301 0.29236,0.29237 -0.96607,1.93853 -2.79651,3.65813 -2.32508,2.18429 -3.32808,2.55043 -3.32808,1.21488 z m -6,-3.88648 c -2.10773,-2.2 -4.6554,-4 -5.66148,-4 -1.00608,0 -1.51049,-0.51572 -1.12093,-1.14604 1.22683,-1.98505 -2.44601,-8.16601 -4.85885,-8.17689 -1.33607,-0.007 -2.65518,-1.39394 -3.13255,-3.29596 -0.45355,-1.80706 -1.96497,-3.64748 -3.35873,-4.08984 -1.39378,-0.44238 -2.53412,-1.42807 -2.53412,-2.19044 0,-0.76238 0.88078,-1.04815 1.95729,-0.63504 2.48381,0.95312 4.27617,-1.7521 2.06593,-3.11811 -0.90846,-0.56145 -2.93533,-0.78205 -4.50416,-0.49023 -2.41041,0.4484 -2.47781,0.36415 -0.435,-0.54369 2.07776,-0.92336 1.55994,-1.69008 -3.6857,-5.45721 -5.61952,-4.03564 -7.28914,-7.75424 -2.68899,-5.989 1.07651,0.4131 1.95729,0.0869 1.95729,-0.7249 0,-0.8118 -0.9,-1.47598 -2,-1.47598 -1.1,0 -1.85,-0.75 -1.66666,-1.66667 0.41988,-2.09939 -5.82503,-1.56783 -7.17124,0.61041 -0.52498,0.84942 -3.7012,2.2418 -7.0583,3.0942 -4.99296,1.26776 -6.1038,1.22335 -6.1038,-0.24406 0,-0.98663 1.19054,-1.79388 2.64563,-1.79388 1.45511,0 4.60511,-1.87142 7,-4.1587 3.93371,-3.75693 4.00467,-3.95014 0.73461,-2 -5.41245,3.2278 -7.55777,2.52418 -3.41741,-1.12084 2.82863,-2.49022 4.70823,-3.06148 8.51831,-2.5889 5.86065,0.7269 7.18553,1.43812 7.18553,3.85728 0,1.0073 1.2,2.21232 2.66667,2.67782 1.51192,0.47987 2.73364,2.10656 2.82133,3.75652 0.1308,2.46124 0.25293,2.52838 0.79171,0.43519 0.35037,-1.36123 -0.0192,-3.13123 -0.82134,-3.93333 -2.31561,-2.31562 -1.70658,-3.39294 1.54163,-2.72708 1.83652,0.37648 1.31943,-0.16407 -1.33333,-1.39379 -5.49122,-2.54552 -5.45918,-3.0668 0.14826,-2.41217 4.13355,0.48257 4.49246,0.22878 4.62151,-3.26774 0.27079,-7.33694 0.81513,-9.79142 2.18261,-9.84153 1.58858,-0.0583 9.1091,-10.37492 9.55898,-13.11311 0.80032,-4.87105 3.65994,-9.51496 5.65845,-9.18908 1.73716,0.28327 2.14732,-0.82961 2.08131,-5.64721 -0.0452,-3.3 -0.58454,-9.24061 -1.19848,-13.20136 -0.89782,-5.79201 -0.77539,-6.99068 0.62557,-6.12484 1.29413,0.79982 1.54859,0.33751 0.98997,-1.79864 -0.41352,-1.58134 -0.25204,-2.87516 0.35888,-2.87516 0.61091,0 1.38514,1.05 1.7205,2.33333 0.36126,1.3824 0.6728,0.78386 0.76444,-1.46865 l 0.15466,-3.80199 -9.66666,0.95005 c -5.31667,0.52252 -10.4101,1.55143 -11.31872,2.28645 -0.96127,0.7776 -3.74886,0.92858 -6.66667,0.36107 -2.75804,-0.53643 -7.22271,-1.05444 -9.92148,-1.15113 -4.70193,-0.16845 -4.81331,-0.0721 -2.66667,2.30598 1.23211,1.36498 5.11151,4.88869 8.62088,7.83047 6.20291,5.19967 6.45454,5.28185 9.03151,2.94973 1.97344,-1.78594 3.03656,-2.01324 4.16029,-0.88949 1.64583,1.64582 1.64284,16.27886 -0.004,17.92535 -0.55533,0.55534 -3.04474,0.42606 -5.53202,-0.28728 -3.33075,-0.95525 -5.48074,-0.81888 -8.15971,0.51758 -2.00056,0.99801 -5.34132,1.54048 -7.42391,1.20549 -2.16752,-0.34865 -3.15925,-0.13687 -2.31945,0.49532 1.48071,1.11467 4.53293,6.28823 4.53293,7.6834 0,0.41488 -1.95,0.81413 -4.33333,0.88723 -4.14456,0.12706 -4.18812,0.18206 -1,1.26152 3.20177,1.08406 3.17592,1.11828 -0.65527,0.86709 -4.98618,-0.32693 -6.34422,-4.43375 -1.756,-5.31033 2.68008,-0.51203 2.5938,-0.61151 -0.66742,-0.76962 -2.12236,-0.10293 -3.38827,-0.75934 -2.92131,-1.5149 0.45323,-0.73334 -0.0204,-1.33334 -1.05239,-1.33334 -1.03204,0 -2.92649,2.55 -4.20989,5.66667 -6.15027,14.93561 -7.43316,19.45741 -7.28199,25.66667 0.37004,15.19845 0.21745,17.51253 -1.40664,21.33333 -2.09581,4.93055 -3.49009,2.13961 -1.61633,-3.23543 0.89288,-2.56132 0.89809,-5.77986 0.0156,-9.63833 -2.12698,-9.29973 1.21385,-27.15455 7.61732,-40.71033 3.79716,-8.03838 4.03768,-12.18574 1.22967,-21.204 -1.12088,-3.59988 -2.37546,-9.69314 -2.78792,-13.54056 -0.94731,-8.83644 0.6098,-9.62672 11.09741,-5.63237 4.25068,1.61893 9.67588,2.89082 12.05603,2.82642 2.38014,-0.0644 5.67277,0.38055 7.31696,0.98877 1.6442,0.60823 3.8968,0.63366 5.0058,0.0565 1.10901,-0.57715 2.9893,-1.34475 4.17845,-1.70579 1.58316,-0.48066 2.19129,-2.38105 2.27121,-7.097322 0.06,-3.5425 0.71803,-16.340904 1.46223,-28.440904 1.10281,-17.930541 2.62923,-53.69649 2.74561,-64.3333318 0.014,-1.283334 0.9279,-2.333334 2.03078,-2.333334 1.72032,0 1.90232,2.510241 1.28092,17.6666668 -1.21408,29.611739 -3.27602,67.905513 -4.08515,75.868583 l -0.76567,7.535242 6.44899,-0.0242 c 12.00436,-0.045 15.11601,0.28332 15.11601,1.59496 0,0.71936 -1.48218,1.67993 -3.29376,2.13461 -1.95418,0.49047 -3.22393,1.72091 -3.12208,3.0254 0.47975,6.14381 -0.29085,8.49926 -2.58416,7.89895 -2.00289,-0.52429 -2.26789,0.19919 -1.87124,5.10871 0.409,5.06233 0.72971,5.55238 2.79112,4.265 1.42263,-0.88845 2.39727,-3.27001 2.50439,-6.1196 0.23727,-6.31124 1.57573,-7.31064 1.57573,-1.17656 0,2.91358 0.64647,4.88889 1.6,4.88889 1.18254,0 1.20972,0.39028 0.10414,1.4958 -2.12607,2.12608 -0.59615,5.68436 1.6445,3.82478 0.93718,-0.77778 2.42294,-1.24309 3.30171,-1.03403 1.74537,0.41523 1.99377,0.0222 7.23389,-11.44537 1.96672,-4.30402 3.89746,-7.50388 4.29052,-7.11081 0.39307,0.39307 -0.53546,3.54081 -2.0634,6.99497 -3.31726,7.49924 -3.47516,8.65632 -0.70904,5.19616 1.99822,-2.49958 2.03896,-2.47977 1.19048,0.5788 -0.52542,1.89407 -0.36428,2.84914 0.40095,2.3762 0.78021,-0.48219 0.73665,1.243 -0.1116,4.42111 -0.76512,2.86653 -1.81153,4.95205 -2.32536,4.63449 -1.33401,-0.82446 -2.42276,9.16488 -1.15155,10.56555 0.58119,0.64037 2.45276,-1.75963 4.15906,-5.33333 2.4883,-5.21159 3.76132,-6.49766 6.4317,-6.49766 2.83107,0 3.65692,-1.02072 5.518,-6.82002 1.20376,-3.75101 3.22455,-8.40101 4.49066,-10.33333 1.2661,-1.93232 2.08301,-3.57909 1.81533,-3.65948 -0.26768,-0.0804 -2.41864,-0.30928 -4.77991,-0.50863 -5.97736,-0.50464 -9.07588,-1.84853 -7.5964,-3.29471 1.42688,-1.39471 13.88966,1.15427 13.88966,2.84081 0,0.60978 2.37889,1.1087 5.28642,1.1087 3.85739,0 5.6586,0.69543 6.66324,2.57261 1.25832,2.35119 1.04938,2.4787 -2.42765,1.4815 -8.6072,-2.46851 -12.64672,1.20114 -14.90271,13.53819 -0.95457,5.2202 -0.0515,6.4066 2.51904,3.30931 1.07266,-1.29247 1.02712,-2.22695 -0.17006,-3.49015 -1.21448,-1.28144 -0.85296,-1.25614 1.40573,0.0984 1.98289,1.18913 3.37441,1.3552 4,0.47739 0.52763,-0.74035 3.33149,-2.54035 6.23081,-4 2.89934,-1.45965 7.9165,-5.25527 11.14924,-8.43472 3.23276,-3.17945 5.4478,-5.08516 4.92232,-4.2349 -0.61798,0.9999 0.0357,0.92694 1.85076,-0.20658 1.5434,-0.96387 2.80619,-2.21325 2.80619,-2.77639 0,-0.56315 1.2,-0.27449 2.66667,0.64146 3.24702,2.0278 3.56418,8.75405 0.6761,14.33898 -1.09481,2.11713 -1.63821,4.93734 -1.20756,6.26712 0.58156,1.79578 0.45366,1.95748 -0.49722,0.62853 -1.95216,-2.72835 -3.05914,4.99757 -1.16574,8.13605 1.21263,2.01006 2.59238,2.39468 6.68919,1.8647 2.8388,-0.36724 5.68352,-1.18978 6.32161,-1.82787 0.63808,-0.63808 2.69819,-10.13543 4.57802,-21.10521 1.87982,-10.96979 4.3379,-24.433152 5.4624,-29.918602 1.12449,-5.48544 2.25074,-12.22642 2.50278,-14.979955 0.25204,-2.753534 0.89092,-5.706489 1.41974,-6.562122 0.52881,-0.855634 1.08557,-3.414654 1.23724,-5.68671 0.15168,-2.272057 0.69597,-5.631013 1.20954,-7.464346 0.51358,-1.833333 1.25188,-6.633333 1.64068,-10.666667 0.38882,-4.033333 1.89664,-11.833333 3.35072,-17.333333 1.4541,-5.5 2.69132,-11.65 2.74939,-13.666666 0.0581,-2.016667 0.61428,-3.666667 1.23601,-3.666667 0.62174,0 1.13043,-1.8 1.13043,-3.9999999 0,-2.1999999 0.6,-3.9999999 1.33333,-3.9999999 0.73334,0 1.35158,1.05 1.37388,2.333334 0.0387,2.2222219 0.1052,2.2222219 1.39959,0 1.56959,-2.6948101 6.02096,-3.1181371 7.01016,-0.666657 0.53801,1.333333 0.69356,1.333333 0.77777,0 0.0619,-0.979327 1.89235,-1.649179 4.4386,-1.624262 3.99351,0.03908 4.14087,0.188244 1.87907,1.902082 -1.66167,1.2591049 -2.17175,2.7497729 -1.57948,4.6158718 0.66666,2.100444 0.39824,2.573326 -1.12822,1.987573 -1.10164,-0.422742 -1.67668,-1.618967 -1.27786,-2.658277 0.39882,-1.0393099 -0.004,-1.8896549 -0.8954,-1.8896549 -1.06278,0 -1.33259,1.147273 -0.78392,3.3333329 0.48244,1.922195 0.26141,3.333334 -0.52212,3.333334 -0.74731,0 -1.42508,-1.65 -1.50618,-3.666667 -0.10173,-2.5305569 -0.71568,-1.394446 -1.9814,3.666667 -1.92589,7.70098 -2.90774,28.741194 -1.41105,30.237882 0.48028,0.480276 0.86404,1.523228 0.85281,2.317673 -0.0112,0.794444 -0.60204,0.544444 -1.31291,-0.555556 -1.04516,-1.617278 -1.2964,-1.425917 -1.31292,1 -0.0241,3.544948 -2.22548,4.018156 -3.10131,0.666667 -0.5662,-2.166608 -0.62083,-2.161877 -0.76444,0.06621 -0.0851,1.319751 0.76985,4.187371 1.89983,6.372491 1.12996,2.185118 1.69456,4.555322 1.25464,5.26712 -0.43992,0.711796 -0.0894,1.294176 0.77884,1.294176 1.04298,0 1.30722,1.357332 0.77869,4 -0.45128,2.25641 -0.23333,4 0.5,4 0.78924,0 1.3,8.224501 1.3,20.933336 0,15.294322 -0.39728,20.536052 -1.47481,19.458522 -0.86619,-0.86619 -1.41866,-6.06596 -1.33874,-12.600002 0.18928,-15.47563 -1.1971,-29.920454 -2.65137,-27.624603 -0.84289,1.330695 -1.16651,1.376189 -1.18133,0.16608 -0.0107,-0.916667 -0.49184,-1.666667 -1.06803,-1.666667 -0.5762,0 -1.04763,1.214856 -1.04763,2.69968 0,1.651948 0.66531,2.444378 1.7143,2.041846 0.94285,-0.361808 1.71428,0.258746 1.71428,1.37901 0,1.21561 -0.62895,1.648135 -1.55992,1.07276 -1.03899,-0.642133 -1.2843,-0.245829 -0.73458,1.186742 0.55896,1.456611 0.24527,1.928223 -0.97188,1.461161 -0.98846,-0.379315 -2.1273,-0.155579 -2.53073,0.497189 -1.00295,1.622792 -1.12349,9.986222 -0.28821,19.994952 0.42722,5.119352 0.18232,8.333332 -0.63502,8.333332 -0.76869,0 -0.9714,1.54823 -0.48009,3.66666 0.78285,3.37551 0.69989,3.47183 -1.04475,1.21294 -1.72093,-2.22819 -2.05688,-2.25883 -3.6549,-0.33334 -1.01804,1.22667 -1.1758,2.1204 -0.3743,2.1204 0.76202,0 1.72843,-0.75 2.14758,-1.66666 0.41914,-0.91667 0.42146,0.28333 0.005,2.66666 -0.46815,2.68011 -0.20781,4.33334 0.68235,4.33334 0.79145,0 1.43912,1.15093 1.43912,2.55762 0,3.97399 1.43729,6.77571 3.47598,6.77571 1.02154,0 1.85735,0.8863 1.85735,1.96955 0,1.36192 -1.33689,1.92632 -4.33333,1.8294 -8.40075,-0.2717 -9.23827,0.0165 -8.33334,2.86772 0.55232,1.74022 0.23612,2.67697 -0.91014,2.69632 -0.9661,0.0163 -0.3273,1.12864 1.41952,2.47185 1.74682,1.34321 2.90933,3.24237 2.58333,4.22036 -1.17613,3.5284 3.91016,6.61147 10.90729,6.61147 5.77777,0 6.66667,0.35556 6.66667,2.66666 0,2.20819 0.88889,2.66667 5.17008,2.66667 5.12269,0 9.05565,2.56807 7.15168,4.66977 -0.54363,0.60011 -0.30644,0.70152 0.52709,0.22539 0.83353,-0.47613 1.90252,-2.92867 2.37555,-5.45005 0.47301,-2.5214 1.40148,-4.77803 2.06326,-5.01474 0.66178,-0.2367 1.56014,-3.58696 1.99636,-7.44502 0.43622,-3.85806 1.37395,-8.54234 2.08384,-10.40953 0.93351,-2.45528 0.87496,-3.13791 -0.21153,-2.46642 -0.94527,0.5842 -1.19128,0.24167 -0.66351,-0.9238 0.46134,-1.01875 1.20916,-2.90227 1.66183,-4.1856 0.453,-1.28333 1.35338,-2.33333 2.00118,-2.33333 0.6478,0 1.18152,-1.95 1.18604,-4.33334 0.004,-2.38333 0.88956,-6.02307 1.96675,-8.08831 1.0772,-2.06524 2.29404,-7.16524 2.70409,-11.333332 0.41007,-4.16809 1.40056,-8.88005 2.20111,-10.47101 1.05465,-2.09593 1.04832,-4.06082 -0.0229,-7.13395 -1.31555,-3.773783 -1.22831,-4.145283 0.7915,-3.370212 1.24851,0.479101 1.84352,0.444586 1.32224,-0.07669 -0.52129,-0.521285 -0.43477,-1.602997 0.19224,-2.403803 0.62703,-0.800807 1.51451,-4.799163 1.97218,-8.885236 0.45768,-4.086072 1.8022,-9.373754 2.98782,-11.750403 1.18563,-2.376648 1.88662,-5.728721 1.55776,-7.449049 -0.45265,-2.367883 -0.1112,-2.941092 1.40532,-2.359148 1.6159,0.620077 1.84191,-0.03801 1.16884,-3.403363 -0.45892,-2.294646 -0.32537,-4.48669 0.29679,-4.871208 1.09459,-0.676489 3.54035,-19.717789 2.96063,-23.049644 -0.16043,-0.921986 0.54472,-1.326484 1.60388,-0.920046 1.33198,0.511131 2.15313,-0.676394 2.78064,-4.0212939 0.94997,-5.0637469 2.84717,-6.2528 3.85053,-2.4132869 0.58073,2.2222219 0.61713,2.2222219 0.76444,0 0.23129,-3.4899971 2.82129,-2.8167941 2.82129,0.733328 0,1.6866659 0.63079,3.6974568 1.40176,4.4684238 1.73632,1.736323 -1.24469,12.455618 -3.73509,13.430872 -0.91667,0.35897 -1.66667,2.038481 -1.66667,3.732244 0,1.693764 -0.75,3.330889 -1.66666,3.638056 -1.10827,0.371368 -1.61279,3.200625 -1.50584,8.444443 0.0913,4.479982 -0.24724,6.755207 -0.78399,5.267895 -0.83627,-2.317247 -1.05371,-2.184269 -1.89239,1.157332 -0.52116,2.076468 -0.61837,4.104597 -0.21601,4.506953 0.40236,0.402358 0.73156,0.05039 0.73156,-0.782152 0,-0.83254 0.9,-1.168346 2,-0.746236 1.1,0.42211 2,1.529812 2,2.46156 0,2.685342 -3.17972,4.684949 -5.33333,3.353941 -2.72014,-1.681135 -5.33334,0.939828 -5.33334,5.349186 0,2.029132 -1.53665,9.305665 -3.41477,16.170073 -1.87813,6.864404 -4.23303,16.680744 -5.23309,21.814076 -1.00007,5.13333 -2.44498,11.73333 -3.2109,14.66666 -2.28374,8.74628 -5.52041,22.30187 -6.68556,28 -0.5998,2.93333 -1.76036,6.98995 -2.57902,9.01469 -0.81867,2.02475 -1.85546,7.80199 -2.30395,12.83831 l -0.81547,9.15695 3.29843,-0.63054 c 1.81413,-0.34678 3.70416,0.026 4.20007,0.82836 0.54132,0.87588 -0.19548,1.4589 -1.84371,1.4589 -1.50995,0 -2.74536,0.53333 -2.74536,1.18518 0,0.65186 -0.96692,1.10186 -2.14872,1 -1.18179,-0.10186 -2.65113,1.13423 -3.26521,2.74683 -0.91171,2.3942 -0.71968,2.77975 1.04685,2.10185 1.63311,-0.62668 1.94873,-0.27082 1.28771,1.4518 -0.5439,1.41735 -0.12934,2.56835 1.0942,3.03786 1.08341,0.41574 1.63789,1.29304 1.23216,1.94952 -0.40574,0.65649 0.0477,1.20181 1.00765,1.21182 0.95995,0.0107 3.24536,0.36207 5.07869,0.78234 2.61391,0.5992 2.90168,0.4558 1.33334,-0.66446 -1.1,-0.78572 -1.4,-1.44696 -0.66667,-1.46941 0.73333,-0.0224 0.43333,-0.62245 -0.66667,-1.33333 -1.49281,-0.96474 -0.81656,-1.27391 2.66667,-1.2192 3.56297,0.056 4.05287,0.31349 2.0714,1.0889 -2.40361,0.94062 -2.35439,1.08004 0.66667,1.88808 5.4932,1.46927 8.285,1.09415 7.47949,-1.00497 -0.40393,-1.05263 -0.0181,-2.24888 0.85735,-2.65833 0.87546,-0.40947 -3.7742,-0.54971 -10.33259,-0.31164 -6.55839,0.23805 -10.75839,-0.0235 -9.33333,-0.5813 1.42505,-0.55776 6.72486,-1.05629 11.77736,-1.10782 7.25957,-0.0741 9.55784,0.39568 10.95758,2.23961 1.68691,2.22223 1.77328,2.22223 1.81367,0 0.0591,-3.25059 8.0424,-2.69999 8.0424,0.55468 0,0.69815 -0.69271,0.84125 -1.53935,0.318 -0.99228,-0.61327 -1.17572,-0.36303 -0.51617,0.70415 1.78689,2.89125 3.83671,-0.58199 2.17544,-3.6861 -0.96365,-1.8006 -1.00568,-3.00997 -0.12347,-3.55517 0.73531,-0.45445 1.37911,0.25913 1.43066,1.58575 0.0836,2.15302 0.21674,2.12569 1.23961,-0.25464 l 1.14591,-2.66667 0.11333,2.66667 c 0.10067,2.3688 0.31031,2.29433 1.87651,-0.66667 1.2039,-2.27607 1.33958,-3.88337 0.42774,-5.06748 -0.9807,-1.27355 -0.5911,-1.9288 1.46674,-2.46693 2.36548,-0.61859 2.60742,-1.24494 1.5526,-4.01932 -1.6054,-4.22255 -1.56654,-5.66664 0.0839,-3.11294 1.00076,1.54858 1.29711,1.14019 1.31292,-1.80932 0.0148,-2.75977 0.54844,-3.60669 1.93688,-3.07389 2.54395,0.9762 3.27202,-2.93907 1.27735,-6.869 -1.65047,-3.25179 -1.10403,-7.73388 1.10971,-9.10204 0.82389,-0.5092 1.00126,0.86788 0.47496,3.68744 l -0.84,4.50015 2.47977,-4.66667 c 2.21136,-4.16153 2.25927,-4.84707 0.44259,-6.33333 -1.49486,-1.22298 -1.57299,-1.66667 -0.29351,-1.66667 1.08696,0 1.48117,-1.00385 1.04668,-2.66533 -0.38335,-1.46594 -0.15333,-3.00135 0.51116,-3.41203 0.66441,-0.41068 1.20808,-0.11127 1.20808,0.66534 0,0.77661 0.644,1.41202 1.43109,1.41202 0.78711,0 1.20148,-1.05 0.92082,-2.33333 -0.28066,-1.28334 -1.20306,-2.19053 -2.04978,-2.016 -0.92874,0.19145 -1.21249,-0.602 -0.71522,-2 1.54741,-4.35034 2.20641,-4.80706 3.21605,-2.22883 0.74377,1.89932 1.03429,1.24092 1.10332,-2.50053 0.0516,-2.79328 0.63776,-4.74245 1.30271,-4.33149 0.66494,0.41096 0.89496,-0.45363 0.51116,-1.92131 -0.39031,-1.49256 -0.0417,-2.66851 0.79101,-2.66851 0.81887,0 1.48884,-0.66419 1.48884,-1.47598 0,-0.8118 -0.9,-1.13063 -2,-0.70852 -1.36039,0.52203 -2,-0.072 -2,-1.85735 0,-2.82233 3.92064,-3.7343 4.11923,-0.95815 0.16036,2.24175 3.82241,-11.04316 3.85505,-13.985052 0.0352,-3.17082 -6.2548,-2.6356 -7.10205,0.60432 -0.34295,1.31143 -0.0795,2.048182 0.58545,1.63723 0.66495,-0.41096 1.20899,0.152802 1.20899,1.252802 0,1.09999 -0.6,2.37081 -1.33334,2.82404 -0.73333,0.45322 -1.33333,0.11517 -1.33333,-0.75124 0,-1.1739 -0.5096,-1.15235 -2,0.0846 -1.1,0.91292 -2,2.45098 -2,3.41791 0,2.51135 -2.64315,3.80561 -4.329,2.11976 -1.01773,-1.01774 -0.38799,-3.07907 2.18452,-7.15049 3.56357,-5.639933 3.56667,-5.664163 0.21944,-1.7205 -1.86728,2.19999 -3.39803,4.35368 -3.40167,4.78597 -0.012,1.49916 -6.82042,3.88064 -11.06936,3.87225 -5.42192,-0.0107 -8.93726,-5.59107 -8.93726,-14.187273 0,-6.64134 1.17742,-9.40561 7.21641,-16.942085 7.0748,-8.829146 13.80663,-10.921004 19.84915,-6.167957 2.93901,2.311831 3.39036,3.636763 3.17981,9.334478 -0.13496,3.652124 0.20463,6.639714 0.75463,6.639084 0.55,-6.3e-4 1.00918,-0.75115 1.02041,-1.66781 0.014,-1.14371 0.40477,-1.0591 1.24536,0.26967 0.67372,1.06499 0.86833,2.56499 0.43248,3.33333 -0.43585,0.76835 -0.29143,0.94216 0.32095,0.38625 0.61237,-0.55591 2.27185,0.64409 3.68773,2.66667 1.46112,2.08718 2.21528,2.59532 1.74403,1.17508 -0.45667,-1.37628 -0.14648,-3.32628 0.68929,-4.33333 1.15031,-1.38603 1.11539,-1.83101 -0.14367,-1.83101 -1.13694,0 -1.4101,-1.26571 -0.86325,-3.999996 0.75724,-3.786215 -0.0617,-4.733566 -3.56577,-4.124859 -0.60451,0.105013 -0.7191,-0.423936 -0.25464,-1.175439 2.23818,-3.621462 6.82153,0.327852 5.221,4.498763 -0.39364,1.025824 -0.20339,2.181771 0.4228,2.568781 1.10482,0.68282 1.6569,-1.928358 1.71269,-8.100579 0.0149,-1.65 0.55536,-3 1.20097,-3 1.27028,0 2.70966,-4.592691 3.76087,-12 0.36425,-2.566667 1.49623,-6.286871 2.51551,-8.26712 2.48657,-4.830896 2.33409,-5.523207 -0.60192,-2.73288 -1.35035,1.283333 -2.21787,2.778581 -1.92784,3.322773 0.29002,0.544192 -0.10667,2.044192 -0.88163,3.333333 -1.05164,1.749487 -1.26512,0.07147 -0.84177,-6.616866 0.58674,-9.269732 1.497,-12.239916 3.39214,-11.068647 0.60583,0.374416 1.43382,-0.18524 1.83998,-1.243681 0.4926,-1.283697 0.0952,-1.677585 -1.19363,-1.183024 -1.06265,0.407779 -1.93209,0.204905 -1.93209,-0.450831 0,-0.655734 1.21805,-1.283998 2.70678,-1.396141 1.48872,-0.112147 2.61764,0.510175 2.50868,1.382928 -0.10893,0.872752 -0.11786,2.486823 -0.0197,3.586823 0.15857,1.777777 0.322,1.777777 1.47089,0 1.86326,-2.883174 1.74435,12.740656 -0.12346,16.230801 -1.05359,1.968638 -1.05359,3.125428 0,4.17901 1.96729,1.967296 1.8371,3.590188 -0.288,3.590188 -1.01698,0 -2.92515,4.032556 -4.5742,9.666667 -7.63586,26.088529 -19.54143,67.850419 -21.30755,74.741779 -1.84128,7.18463 -1.81316,7.93063 0.39061,10.36578 1.30607,1.4432 3.01847,2.40673 3.80534,2.14118 0.78685,-0.26554 2.16157,0.46987 3.05492,1.63423 1.07284,1.39832 1.63865,1.55121 1.66666,0.45036 0.0233,-0.91667 0.58623,-1.66667 1.25091,-1.66667 0.66468,0 0.92959,1.06658 0.58869,2.37016 -0.56112,2.14574 0.20823,2.30068 8.12483,1.63639 l 8.74463,-0.73379 v 4.2123 c 0,3.6443 -0.52992,4.29005 -3.93006,4.78909 -2.16153,0.31724 -4.95785,0.001 -6.21404,-0.70137 -1.82689,-1.02238 -2.1161,-0.84068 -1.44513,0.90785 0.66356,1.72919 -0.005,2.18604 -3.19797,2.18604 -2.22027,0 -3.6977,0.54876 -3.28319,1.21945 0.41452,0.6707 -7e-5,1.52334 -0.92131,1.89474 -0.92124,0.37141 0.84522,0.72265 3.92544,0.78054 3.98343,0.0749 5.97024,-0.55557 6.88131,-2.18356 1.13408,-2.02649 1.67656,-2.07708 4.73292,-0.44136 4.56061,2.44076 4.63627,6.73019 0.11867,6.73019 -1.83334,0 -3.33334,0.60397 -3.33334,1.34215 0,0.73818 -1.47953,2.6286 -3.28785,4.2009 -1.80832,1.57232 -2.90989,3.47032 -2.44795,4.21778 0.5197,0.84088 -0.0715,1.00929 -1.55048,0.44173 -1.31472,-0.50451 -5.0328,-1.58265 -8.26241,-2.39588 -6.58976,-1.65932 -9.13055,-4.95779 -8.62409,-11.19588 0.21444,-2.64123 -0.57579,-4.87495 -2.26563,-6.40424 -2.52924,-2.28892 -2.63627,-2.16939 -4.22832,4.72253 -2.25195,9.74859 -4.57553,13.07091 -9.14163,13.07091 -2.06078,0 -6.99696,0.57847 -10.96926,1.28548 -3.97231,0.70701 -13.908,2.24196 -22.07932,3.411 -17.98215,2.57263 -16.84671,2.9492 -41.14305,-13.64551 l -17.33334,-11.83888 0.33631,-9.56534 c 0.29729,-8.45552 0.0785,-9.46643 -1.88539,-8.71279 -1.49445,0.57347 -1.90612,0.34192 -1.25762,-0.70737 0.53025,-0.85796 1.86408,-1.55992 2.96408,-1.55992 1.1,0 1.60369,-0.64126 1.1193,-1.425 -0.48438,-0.78375 -3.6698,-1.33044 -7.07869,-1.21486 -9.22997,0.31295 -9.51988,0.2222 -9.66912,-3.02681 -0.0931,-2.02672 -0.56765,-1.38205 -1.46273,1.98708 -1.17722,4.43108 -0.95212,5.43013 2.01897,8.96108 6.10431,7.25456 7.68088,25.37076 2.75508,31.65837 -1.66581,2.12635 -1.85985,1.50063 -1.73873,-5.60653 0.17589,-10.32092 -1.52076,-18.89737 -4.8121,-24.32491 -2.09094,-3.44804 -3.50126,-4.32661 -6.95602,-4.33333 -2.38334,-0.004 -4.33334,-0.62776 -4.33334,-1.38472 0,-0.75697 -1.34014,-1.87205 -2.9781,-2.47797 l -2.9781,-1.10168 3.20984,-1.01876 c 2.30011,-0.73003 3.65819,-0.40562 4.79176,1.14464 3.04019,4.1577 5.65884,2.5121 7.16295,-4.5013 0.78613,-3.66557 3.23585,-10.05004 5.44383,-14.18769 3.90852,-7.32435 5.12105,-12.48095 2.93482,-12.48095 -0.59382,0 -4.13704,2.60971 -7.8738,5.79935 -3.73676,3.18964 -9.70089,7.49424 -13.25364,9.56576 -13.82233,8.05951 -17.39601,12.43545 -13.45953,16.48113 1.34712,1.3845 1.02759,1.62735 -1.66667,1.26667 -2.65618,-0.35559 -3.37616,-1.25881 -3.54414,-4.44624 -0.116,-2.2 -0.26595,-4.47111 -0.33334,-5.04691 -0.0673,-0.5758 -1.26362,-0.43621 -2.6583,0.3102 -2.19732,1.17596 -2.44696,0.95976 -1.87023,-1.61976 0.55729,-2.49253 0.21203,-2.32606 -2.12208,1.02314 -1.53321,2.2 -2.79163,5.90093 -2.79645,8.22428 -0.0107,5.37181 -1.25702,8.65236 -2.9002,7.63681 -0.78992,-0.48819 -0.92372,1.17109 -0.35008,4.341 1.1206,6.19225 1.89308,7.38832 1.95056,3.02013 0.0505,-3.84492 2.68812,-7.65958 4.80284,-6.9464 0.83154,0.28044 2.57797,-0.55618 3.88094,-1.85916 1.74478,-1.74476 2.1988,-1.84829 1.72298,-0.39285 -0.35534,1.08691 -2.27784,2.77143 -4.27223,3.74337 -2.54368,1.23966 -3.40337,2.46914 -2.87985,4.11859 0.41046,1.29327 -0.16346,4.52876 -1.27539,7.18999 -2.36312,5.65574 -2.60201,8.0645 -0.42811,4.3167 1.50106,-2.58781 1.5202,-2.58781 2.5324,0 0.92104,2.35472 1.029,2.37368 1.11363,0.19551 0.0523,-1.34337 0.71904,-2.02555 1.50512,-1.53973 0.78223,0.48345 1.0864,2.7474 0.68235,5.07869 -0.40096,2.31352 -0.36819,3.40271 0.0728,2.4204 0.572,-1.27404 1.25756,-0.89184 2.39161,1.33333 0.9596,1.88287 2.53839,2.95186 3.98292,2.69683 1.59291,-0.28123 2.05921,0.11773 1.39452,1.19332 -0.73849,1.19489 0.008,1.3732 2.8662,0.68447 6.84951,-1.65062 10.98832,-0.84002 17.23447,3.37546 3.36393,2.2703 5.86685,4.37722 5.56201,4.68204 -0.30483,0.30483 -3.48915,-0.78482 -7.07627,-2.42144 -3.58713,-1.63661 -7.12205,-3.2331 -7.85538,-3.54776 -0.73334,-0.31465 0.16666,0.6239 2,2.08568 1.83333,1.46179 5.58333,3.46374 8.33333,4.44878 5.31896,1.90524 6.62089,3.92196 2.53192,3.92196 -2.68363,0 -14.24536,-5.76084 -17.63691,-8.7879 -2.90924,-2.5966 -3.20924,-2.41766 -3.36437,2.00671 -0.0963,2.74628 0.39052,3.67735 1.66667,3.18764 0.99148,-0.38047 1.80269,-0.11867 1.80269,0.58173 0,0.70042 -2.42899,2.3688 -5.39775,3.70752 -2.96876,1.33874 -5.76146,3.02256 -6.20601,3.74186 -0.44455,0.71928 -0.17843,0.91853 0.59137,0.44277 0.76979,-0.47576 1.75563,0.0627 2.19074,1.19657 0.45382,1.18266 0.2281,1.71364 -0.52946,1.24544 -0.7263,-0.44888 -1.90457,0.71996 -2.61838,2.59743 -0.71382,1.87745 -1.7627,3.45947 -2.33084,3.51557 -0.56815,0.0561 -2.00559,0.29166 -3.19432,0.52344 -1.18872,0.23179 -2.1442,-0.26412 -2.12328,-1.10201 0.10036,-4.01923 -0.50123,-6.19011 -1.71536,-6.19011 -0.73334,0 -1.40432,1.35 -1.49108,3 -0.1276,2.42542 -0.35271,2.2339 -1.17559,-1 -0.5598,-2.2 -1.08881,-2.95 -1.17559,-1.66666 -0.0868,1.28333 -0.008,2.62177 0.17559,2.97432 0.18333,0.35254 -1.05547,1.61374 -2.75289,2.80266 -3.35727,2.35154 -5.46099,1.65534 -3.25774,-1.07809 2.00635,-2.48915 3.46976,-10.36556 1.92588,-10.36556 -3.787,0 -1.58388,-10.88824 2.47703,-12.24187 0.87307,-0.29102 0.44873,-1.63542 -1.06827,-3.38453 -2.4957,-2.87757 -2.53534,-2.87991 -4.76216,-0.27916 -2.12404,2.48068 -2.42846,2.50269 -5.62708,0.40688 -3.2302,-2.11651 -3.50793,-2.08005 -6.20436,0.81423 -2.28733,2.45516 -2.53377,3.49272 -1.2991,5.46972 1.64381,2.63217 0.71817,10.09229 -1.4159,11.41121 -0.82498,0.50988 -0.98944,-1.34389 -0.44602,-5.02773 0.82094,-5.56524 0.77145,-5.68202 -1.06884,-2.52219 l -1.92964,3.31323 -0.58568,-3.9799 c -0.58479,-3.97385 -1.66606,8.63607 -1.29712,15.12723 0.14728,2.59137 -0.14922,2.83671 -1.78628,1.47807 -1.63794,-1.35936 -1.81319,-1.21155 -1.05871,0.89289 1.97967,5.52171 3.34231,6.04457 6.59792,2.53169 4.13848,-4.46548 4.84439,-4.22046 3.80487,1.32066 l -0.87492,4.66376 7.34564,-0.16935 c 6.35092,-0.14641 7.54066,-0.5974 8.78592,-3.33043 1.60682,-3.5266 3.87762,-4.12577 4.95874,-1.30842 0.43404,1.13112 1.79716,1.5686 3.49998,1.1233 1.89881,-0.49654 2.4846,-0.23672 1.8352,0.81402 -1.27155,2.0574 -5.74714,1.97289 -6.53012,-0.12334 -0.57119,-1.52918 -1.45146,0.0176 -2.98562,5.24612 -0.69024,2.3524 -6.09018,5.04704 -5.63309,2.81098 0.23447,-1.14706 -1.54349,-1.86094 -5.31431,-2.13376 -3.87992,-0.28071 -5.66676,0.11866 -5.66676,1.26666 0,1.30408 -0.35556,1.32111 -1.6,0.0767 -0.88,-0.88 -2.05274,-1.6 -2.60607,-1.6 -0.55333,0 0.46667,1.47273 2.26667,3.27273 2.77018,2.77018 4.3205,6.0606 2.85552,6.0606 -0.22947,0 -2.14172,-1.8 -4.24946,-4 z m -7.75585,-22.91667 c -0.42563,-1.06364 -0.74157,-0.7477 -0.80555,0.80556 -0.0579,1.40555 0.25723,2.19306 0.7003,1.75 0.44305,-0.44306 0.49041,-1.59306 0.1052,-2.55556 z m -4.03759,-0.47417 c 1.24038,-3.23235 -0.49037,-3.81588 -2.14544,-0.72336 -1.03197,1.92825 -1.05226,2.78087 -0.0661,2.78087 0.78215,0 1.77739,-0.92588 2.21163,-2.05751 z m 44.099,-2.74805 c -0.44306,-0.44306 -1.59306,-0.49042 -2.55556,-0.1052 -1.06364,0.42562 -0.7477,0.74157 0.80556,0.80554 1.40555,0.0579 2.19306,-0.25724 1.75,-0.70029 z m -44.97222,-3.03894 c 0,-0.6478 -1.35,-1.51796 -3,-1.93368 -2.89744,-0.73002 -2.91152,-0.68976 -0.41183,1.17783 3.01897,2.25555 3.41183,2.34257 3.41183,0.75585 z m 6.24414,-1.73884 c -0.42562,-1.06364 -0.74157,-0.7477 -0.80554,0.80556 -0.0579,1.40555 0.25722,2.19306 0.70029,1.75 0.44305,-0.44306 0.49041,-1.59306 0.1052,-2.55556 z m 29.75428,-3.07918 c 0.91123,-2.39672 3.01359,-3.50399 9.58443,-5.04792 5.20856,-1.22386 7.01943,-2.03719 4.75048,-2.13367 -2.50792,-0.10667 -3.69337,-0.89328 -3.75119,-2.48923 -0.0648,-1.78774 -0.36646,-1.63186 -1.29036,0.66667 -0.67057,1.66828 -2.35606,3 -3.79696,3 -2.55096,0 -9.49482,6.95813 -9.49482,9.51432 0,2.18233 2.75302,-0.23452 3.99842,-3.51017 z m -42.66509,1.49244 c 0,-0.27687 -1.05,-1.32687 -2.33333,-2.33334 -2.11475,-1.65849 -2.16191,-1.61133 -0.50342,0.50342 1.74183,2.221 2.83675,2.9273 2.83675,1.82992 z m 156.52482,-6.71876 c -0.66097,-1.72248 -1.16457,-1.90007 -1.92034,-0.6772 -1.349,2.1827 0.0361,5.79214 1.61628,4.21194 0.66,-0.66 0.79682,-2.25062 0.30406,-3.53474 z m -142.16758,-2.11116 c -0.91595,-1.46667 -2.68563,-2.66667 -3.93261,-2.66667 -3.10728,0 -3.83334,-1.57275 -3.97458,-8.60959 -0.1332,-6.63633 1.94754,-10.33246 5.12932,-9.1115 1.58934,0.60989 1.92263,2.33584 1.48054,7.66694 -0.3722,4.48815 0.0152,7.427 1.11429,8.45374 0.96616,0.90252 2.00855,1.05009 2.44373,0.34593 0.41739,-0.67536 0.21835,-1.56201 -0.44233,-1.97033 -1.99452,-1.23268 -1.4092,-14.01778 0.74015,-16.16714 1.69964,-1.69962 1.68048,-1.94138 -0.15384,-1.94138 -1.97775,0 -2.74094,-2.32012 -2.14896,-6.53284 0.21764,-1.54876 -0.0693,-1.53455 -1.68751,0.0836 -3.6262,3.6262 -7.85881,13.50465 -7.85135,18.32416 0.004,2.63546 -0.57466,5.49992 -1.28609,6.36544 -1.38052,1.67954 2.31867,4.42632 5.96108,4.42632 1.05843,0 2.67133,0.9 3.58425,2 2.37575,2.8626 2.98162,2.46812 1.02391,-0.66667 z m 130.10286,-0.72418 c -0.43425,-1.13162 -1.0755,-1.77154 -1.425,-1.42204 -0.3495,0.34951 -0.23997,1.27539 0.2434,2.05751 1.31474,2.12728 2.08318,1.71401 1.1816,-0.63547 z m 90.20656,1.46954 c 0,-0.32339 -0.6,-0.9588 -1.33333,-1.41203 -0.73333,-0.45323 -1.33333,-0.18864 -1.33333,0.58797 0,0.77662 0.6,1.41203 1.33333,1.41203 0.73333,0 1.33333,-0.26459 1.33333,-0.58797 z m -188.01965,-5.82406 -0.0196,-3.58797 -1.76548,3.33333 c -1.85005,3.49302 -1.55354,5.91819 0.56359,4.60972 0.68265,-0.4219 1.23236,-2.38169 1.22155,-4.35508 z m 103.97532,-3.70458 c -1.00425,-2.64136 -0.9596,-4.0518 0.16145,-5.10051 1.122,-1.04959 1.71894,-0.98739 2.16343,0.22543 1.11707,3.04792 3.05279,0.24505 3.05279,-4.42034 v -4.58797 h -7.33334 -7.33333 v -5.33333 -5.33334 l -5.66666,-0.0181 c -3.11667,-0.0107 -6.98772,-0.37243 -8.60235,-0.80536 -2.67547,-0.71737 -3.01703,-0.17388 -3.85351,6.13175 -0.55752,4.20284 -1.691,7.2156 -2.88744,7.6747 -1.51772,0.58242 -1.24542,1.15734 1.18684,2.50588 1.73606,0.96254 4.20646,1.77134 5.48979,1.79731 1.28333,0.026 2.18333,0.72225 2,1.54725 -0.18333,0.825 0.50019,1.80284 1.51893,2.17298 1.02719,0.37321 1.48183,0.0736 1.02066,-0.67258 -0.52362,-0.84722 1.75317,-1.28164 6.14774,-1.17297 6.7936,0.16799 7.36352,0.65159 5.7234,4.85657 -0.43276,1.10954 0.52479,3.6474 2.12788,5.63972 2.80524,3.48631 2.98155,3.527 4.69327,1.08318 1.3329,-1.903 1.43074,-3.454 0.39045,-6.19018 z m 78.711,5.95924 c 0,-0.73334 -0.6,-0.96252 -1.33333,-0.5093 -0.73334,0.45323 -1.33334,1.42404 -1.33334,2.15738 0,0.73333 0.6,0.96252 1.33334,0.50929 0.73333,-0.45323 1.33333,-1.42404 1.33333,-2.15737 z m -196.09852,-3.29467 c -1.57232,-1.89453 -5.23481,-2.61396 -5.23481,-1.02828 0,1.43116 4.56597,4.28791 5.71671,3.57672 0.59369,-0.36693 0.37685,-1.51372 -0.4819,-2.54844 z m -22.97749,-4.18925 c -0.33805,-1.2973 -0.63688,-0.55871 -0.66405,1.64129 -0.0272,2.2 0.24941,3.26141 0.61465,2.35871 0.36523,-0.90271 0.38745,-2.70271 0.0495,-4 z m 15.07601,2.97462 c 0,-1.1 -0.6,-2 -1.33333,-2 -0.73333,0 -1.33333,-1.3 -1.33333,-2.88889 0,-1.58888 -0.3571,-2.53179 -0.79355,-2.09533 -1.15776,1.15776 0.78733,8.98422 2.23283,8.98422 0.67505,0 1.22738,-0.9 1.22738,-2 z m 200.90045,1.12268 c -0.48252,-0.48253 -0.29205,-1.58253 0.42328,-2.44444 0.88887,-1.07102 0.72184,-1.56713 -0.52764,-1.56713 -1.00553,0 -1.6419,0.95 -1.41418,2.11112 0.5647,2.87917 0.50969,2.77777 1.50698,2.77777 0.48888,0 0.4941,-0.3948 0.012,-0.87732 z m -188.92086,-4.86804 c 0.0112,-0.59328 -0.57959,-0.70786 -1.31292,-0.25464 -0.73333,0.45323 -1.32415,1.83864 -1.31292,3.0787 0.0176,1.94302 0.19905,1.97822 1.31292,0.25464 0.71088,-1.1 1.30169,-2.48542 1.31292,-3.0787 z m -6.30375,-5.22402 c 0.38292,-3.13351 1.12671,-6.74728 1.65284,-8.03062 0.72659,-1.77222 0.30267,-2.33333 -1.76284,-2.33333 -3.91134,0 -5.66049,-9.8006 -2.8894,-16.18955 1.2472,-2.8755 1.32436,-2.77184 0.90411,1.21486 -0.47083,4.4664 2.0656,8.37128 3.70968,5.71112 3.05896,-4.94952 1.87967,-16.12954 -1.68397,-15.9645 -1.38958,0.0644 -1.62519,0.36663 -0.60626,0.77778 2.29951,0.92788 2.09836,3.11696 -0.28642,3.11696 -1.0742,0 -2.6043,1.2168 -3.40023,2.70401 -0.79593,1.4872 -2.01704,2.3518 -2.71357,1.92131 -0.69655,-0.43048 -1.26644,0.48812 -1.26644,2.04134 0,1.55323 0.45,2.54762 1,2.20976 0.55,-0.33785 1.05857,1.0216 1.13016,3.02103 0.25557,7.13833 1.81136,10.76921 4.61448,10.76921 2.23522,0 2.40114,0.31536 0.9746,1.85246 -1.25714,1.35452 -2.0182,1.44412 -2.8315,0.33333 -0.62829,-0.85812 -0.78206,0.39525 -0.35341,2.88049 0.47049,2.7278 0.25981,4.0912 -0.55441,3.58798 -0.7223,-0.4464 -1.31326,0.42377 -1.31326,1.93372 0,3.02624 2.00586,3.7003 3.20992,1.07869 0.421,-0.91667 0.40672,-0.24153 -0.0317,1.50031 -0.47845,1.90066 -0.27768,2.84588 0.50212,2.36394 0.71463,-0.44166 1.61261,-3.3668 1.99553,-6.5003 z m -0.23724,-25.80839 c 0.064,-1.55327 0.37992,-1.8692 0.80555,-0.80556 0.38516,0.96249 0.3378,2.11249 -0.1052,2.55556 -0.44307,0.44305 -0.75819,-0.34445 -0.70029,-1.75 z m 187.10545,26.77777 c -1.91113,-2.91676 -4.54405,-4.49197 -4.54405,-2.71861 0,0.68135 5.57489,6.05195 6.28215,6.05195 0.24529,0 -0.53684,-1.5 -1.7381,-3.33334 z m -178.56322,-4.72706 c -0.58008,-1.82767 -0.28948,-2.55723 0.91869,-2.30643 1.98427,0.41189 2.64728,-5.93155 1.07684,-10.30281 -0.79681,-2.21791 -1.20838,-1.77112 -2.45922,2.66964 -1.97808,7.02258 -2.02492,18.34482 -0.062,14.97309 0.75576,-1.29813 0.99229,-3.5632 0.52564,-5.03349 z m 183.93776,4.57381 c 1.6358,-0.62772 1.03737,-1.40913 -2.55279,-3.33333 -2.5792,-1.38238 -4.9702,-2.51342 -5.31332,-2.51342 -0.48241,0 4.47973,5.88222 5.50513,6.52588 0.12334,0.0775 1.1858,-0.22817 2.36098,-0.67913 z m 20.38697,0.0144 c -0.44305,-0.44305 -1.59307,-0.49041 -2.55556,-0.1052 -1.06364,0.42563 -0.74771,0.74157 0.80556,0.80555 1.40555,0.0579 2.19305,-0.25723 1.75,-0.7003 z m -220.06141,-4.77781 c -0.42563,-1.06364 -0.74157,-0.74771 -0.80555,0.80556 -0.0579,1.40554 0.25723,2.19305 0.7003,1.75 0.44305,-0.44307 0.49041,-1.59307 0.1052,-2.55556 z m 201.75585,-2.41667 c 0,-0.73333 -1.05,-1.32415 -2.33333,-1.31292 -1.99407,0.0175 -2.04254,0.20835 -0.33334,1.31292 2.51628,1.62615 2.66667,1.62615 2.66667,0 z m -201.20829,-5.74163 c -1.05561,-1.05561 -1.45837,-0.70964 -1.45837,1.25274 0,3.525 1.8646,5.39605 2.45837,2.46688 0.25211,-1.24368 -0.19789,-2.91751 -1,-3.71962 z m 128.35713,1.07496 c 0.59129,-1.54088 -0.29419,-2 -3.85735,-2 -3.22206,0 -4.62482,0.60663 -4.62482,2 0,1.3169 1.31748,2 3.85734,2 2.19878,0 4.18735,-0.85996 4.62483,-2 z m -134.48217,-0.66666 c 0.45323,-0.73334 0.18864,-1.33334 -0.58797,-1.33334 -0.77662,0 -1.41203,0.6 -1.41203,1.33334 0,0.73333 0.26459,1.33333 0.58797,1.33333 0.32339,0 0.9588,-0.6 1.41203,-1.33333 z m 16.24415,-4.25 c -0.42563,-1.06364 -0.74158,-0.74771 -0.80555,0.80556 -0.0579,1.40554 0.25723,2.19305 0.70029,1.75 0.44306,-0.44307 0.49042,-1.59307 0.1052,-2.55556 z m -13.00454,-2.22599 c -0.0515,-1.20487 -0.54118,-3.33135 -1.08812,-4.72548 -0.87602,-2.23307 -1.1976,-2.04424 -2.70137,1.58619 -0.93884,2.26654 -1.32996,4.731 -0.86917,5.47657 1.22993,1.99009 4.76785,0.21511 4.65866,-2.33728 z M 155.9161,140.84371 c -0.7471,-2.35389 -0.23631,-2.50642 6.4531,-1.92714 4.07428,0.35281 7.62223,0.0501 8.07923,-0.68932 0.44815,-0.72512 3.05381,-1.01044 5.79037,-0.63403 4.84055,0.6658 4.88512,0.63416 1.64224,-1.16578 -1.83333,-1.01759 -3.25032,-2.86313 -3.14886,-4.10122 0.1036,-1.26337 -2.52907,-4.25816 -6,-6.82547 -7.2615,-5.37105 -19.99135,-18.09169 -18.13435,-18.12124 1.45936,-0.0232 -2.18016,-2.59446 -3.71679,-2.62583 -1.94085,-0.0396 -0.96693,9.29809 1.66667,15.97958 1.46667,3.72096 2.66667,9.02318 2.66667,11.78269 0,2.75952 0.72,5.73731 1.6,6.61731 1.24444,1.24444 1.22696,1.6 -0.0787,1.6 -0.92328,0 -1.30787,0.6 -0.85464,1.33333 1.55795,2.52082 4.90163,1.50746 4.03505,-1.22288 z m 57.00412,-2.83 c -0.39115,-1.49575 -1.00911,-2.42163 -1.37323,-2.0575 -0.72133,0.72132 0.55279,4.77705 1.50072,4.77705 0.32103,0 0.26365,-1.2238 -0.12747,-2.71955 z m -10.15614,-2.94712 c -0.36988,-0.91666 -0.67252,-0.16666 -0.67252,1.66667 0,1.83333 0.30264,2.58333 0.67252,1.66667 0.36988,-0.91667 0.36988,-2.41667 0,-3.33334 z m 15.09655,-0.66666 c 0.0112,-0.91667 -0.57959,-1.66667 -1.31292,-1.66667 -0.73333,0 -1.32415,1.65 -1.31292,3.66667 0.0159,2.85725 0.30575,3.22516 1.31292,1.66666 0.71088,-1.1 1.30169,-2.75 1.31292,-3.66666 z m -36.0182,-4.38542 c -1.07876,-0.68223 -1.47597,-1.2496 -0.88269,-1.26083 0.59328,-0.0112 0.70181,-0.63021 0.2412,-1.3755 -0.46062,-0.7453 -1.43512,-0.98573 -2.16555,-0.5343 -0.79855,0.49353 -0.41065,1.83451 0.97284,3.36326 1.26551,1.39836 2.63721,2.20617 3.04825,1.79513 0.41103,-0.41103 -0.13529,-1.30552 -1.21405,-1.98776 z m 39.61609,-0.19792 c -0.42562,-1.06364 -0.74157,-0.7477 -0.80554,0.80556 -0.0579,1.40556 0.25722,2.19306 0.70029,1.75 0.44305,-0.44306 0.49041,-1.59306 0.1052,-2.55556 z M 377.91965,99.452008 c -1.07876,-0.68223 -1.54326,-1.65854 -1.03222,-2.16958 0.51104,-0.51104 1.84366,-0.1702 2.96138,0.75743 3.42023,2.838532 2.25503,-0.12765 -1.3698,-3.48704 -1.87112,-1.73409 -3.67112,-3.15289 -4,-3.15289 -1.42821,0 -0.43632,7.84301 1.0687,8.4503 2.8729,1.159242 4.42312,0.898982 2.37194,-0.39822 z m 8.3482,-6.72059 c 0.3838,-1.46768 0.15379,-2.33226 -0.51116,-1.92131 -0.66494,0.41096 -1.20898,1.61179 -1.20898,2.66851 0,2.75967 0.906,2.36612 1.72014,-0.7472 z m 17.61319,0.002 c 0.45323,-0.73333 -0.14677,-1.33333 -1.33333,-1.33333 -1.18656,0 -1.78656,0.6 -1.33334,1.33333 0.45323,0.73334 1.05323,1.33334 1.33334,1.33334 0.2801,0 0.8801,-0.6 1.33333,-1.33334 z m -20.58183,-6.66666 c 0.0988,1.57183 0.28043,1.61089 0.8485,0.18246 0.61024,-1.53449 0.92112,-1.53449 1.99624,0 1.03541,1.47782 1.17164,1.44371 0.7288,-0.18246 -0.61546,-2.26 -7.30439,-2.984796 -8.57484,-0.92915 -0.46984,0.76022 -0.1621,0.92907 0.71045,0.3898 0.86233,-0.53295 1.54832,-0.18374 1.55976,0.79399 0.0148,1.26825 0.37373,1.19864 1.31292,-0.25464 1.14889,-1.77778 1.30647,-1.77778 1.41817,0 z m 9.91516,0 c 0.45323,-0.73334 0.22404,-1.33334 -0.50929,-1.33334 -0.73333,0 -1.70415,0.6 -2.15737,1.33334 -0.45323,0.73333 -0.22404,1.33333 0.50929,1.33333 0.73333,0 1.70415,-0.6 2.15737,-1.33333 z m -2.38348,-5.451909 c -1.72777,-2.766609 -2.87277,-2.966742 -6.94985,-1.214761 -2.53091,1.087565 -2.5118,1.150677 0.37517,1.23962 1.67303,0.05155 3.37268,0.955828 3.77702,2.009524 0.40434,1.053694 1.55728,1.600336 2.56208,1.214766 1.45524,-0.558436 1.50317,-1.219429 0.23558,-3.249149 z m 27.02974,-34.214961 c -0.0148,-2.668516 -0.34424,-3.155136 -1.20998,-1.787578 -0.65425,1.033498 -0.88088,2.683498 -0.5036,3.666666 1.08195,2.819504 1.73575,2.102556 1.71358,-1.879088 z M 369.76691,36.066595 c 0.0403,-0.733333 -0.50832,-0.433333 -1.2192,0.666667 -0.71088,1.1 -1.25952,2.9 -1.2192,4 0.0773,2.111798 2.29956,-2.141036 2.4384,-4.666667 z m -52.30839,1.75 c -0.42562,-1.063644 -0.74157,-0.747701 -0.80554,0.805556 -0.0579,1.405555 0.25722,2.193055 0.70029,1.75 0.44305,-0.443056 0.49041,-1.593056 0.1052,-2.555556 z m 54.66667,-14.666666 c -0.42563,-1.063644 -0.74158,-0.747702 -0.80555,0.805556 -0.0579,1.405554 0.25724,2.193054 0.70029,1.75 0.44306,-0.443056 0.49042,-1.593056 0.1052,-2.555556 z m -58.66667,-2.666667 c -0.42562,-1.063644 -0.74157,-0.747701 -0.80554,0.805556 -0.0579,1.405555 0.25722,2.193055 0.70029,1.75 0.44305,-0.443056 0.49041,-1.593056 0.1052,-2.555556 z m 59.97223,-4.083333 c -0.36988,-0.916667 -0.67252,-0.166667 -0.67252,1.666666 0,1.833334 0.30264,2.583334 0.67252,1.666667 0.36988,-0.916667 0.36988,-2.416667 0,-3.333333 z M 217.36731,226.65099 c -0.74884,-1.95144 4.62341,-3.63693 7.75809,-2.43404 1.16762,0.44806 3.0153,0.074 4.10595,-0.83112 1.60424,-1.33138 1.98303,-1.26629 1.98303,0.34082 0,2.68182 -12.89511,5.40512 -13.84707,2.92434 z m 6.81929,-1.38996 c -0.44306,-0.44305 -1.59306,-0.49041 -2.55556,-0.1052 -1.06364,0.42563 -0.7477,0.74158 0.80556,0.80555 1.40555,0.0579 2.19306,-0.25724 1.75,-0.70029 z m -45.80454,-1.97602 c -2.29111,-0.66427 -4.91458,-2.11016 -5.82992,-3.21308 -0.91536,-1.10294 -2.4554,-2.00534 -3.42234,-2.00534 -0.96692,0 -2.1686,-0.66428 -2.67037,-1.47617 -0.62521,-1.01161 0.0844,-1.17309 2.25464,-0.51309 1.74184,0.52969 3.76697,1.04397 4.50031,1.14284 0.73333,0.0989 1.75905,0.77589 2.27938,1.5045 0.52034,0.7286 2.62034,1.17083 4.66667,0.98271 4.39113,-0.40368 7.77512,1.44696 6.47941,3.54348 -1.05461,1.7064 -2.46985,1.71225 -8.25778,0.0341 z m 55.17072,-2.75682 c 1.3264,-1.3264 0.92204,-1.98488 -2.00514,-3.26514 -3.48124,-1.5226 -3.34689,-1.59338 2.65746,-1.40007 3.47824,0.112 6.32824,0.60967 6.33333,1.10596 0.005,0.49629 -1.93841,1.87397 -4.31892,3.06153 -2.39263,1.1936 -3.5852,1.41619 -2.66673,0.49772 z m -61.00507,-7.63756 c 0,-0.73333 0.6,-1.70414 1.33333,-2.15737 0.73334,-0.45323 1.33334,-0.22404 1.33334,0.50929 0,0.73334 -0.6,1.70415 -1.33334,2.15738 -0.73333,0.45322 -1.33333,0.22404 -1.33333,-0.5093 z m 67.75,0.26515 c 0.96249,-0.38516 2.11249,-0.3378 2.55556,0.1052 0.44305,0.44305 -0.34445,0.75819 -1.75,0.70029 -1.55327,-0.064 -1.8692,-0.37992 -0.80556,-0.80554 z m -73.08333,-2.42252 c 0,-1.1 0.23581,-2 0.52401,-2 0.28821,0 0.86937,0.9 1.29149,2 0.42211,1.1 0.1863,2 -0.52401,2 -0.71032,0 -1.29149,-0.9 -1.29149,-2 z m 72,-0.4 c 0,-1.79877 3.08373,-4.26932 5.26666,-4.21941 1.333,0.0305 0.93,0.67714 -1.13518,1.8216 -2.34267,1.29822 -2.70046,1.97288 -1.33334,2.51416 1.35995,0.53844 1.23343,0.76844 -0.46481,0.84505 -1.28333,0.0579 -2.33333,-0.37473 -2.33333,-0.9614 z m -42.66667,-1.6 c 0,-0.73333 0.6,-1.33333 1.33333,-1.33333 0.73334,0 1.33334,0.6 1.33334,1.33333 0,0.73333 -0.6,1.33333 -1.33334,1.33333 -0.73333,0 -1.33333,-0.6 -1.33333,-1.33333 z m -57.58332,-0.91081 c 0.96249,-0.38516 2.11249,-0.3378 2.55556,0.1052 0.44305,0.44305 -0.34446,0.75818 -1.75,0.70029 -1.55327,-0.064 -1.8692,-0.37992 -0.80556,-0.80555 z m 65.93596,-1.66498 c -2.30173,-1.92054 -2.55244,-2.6514 -1.10063,-3.2085 1.07806,-0.4137 2.78927,0.66617 4.01143,2.53142 2.52325,3.85098 1.24843,4.14751 -2.9108,0.67708 z m -40.76084,0.38982 c -1.08848,-1.0885 0.15371,-3.14736 1.89891,-3.14736 0.73333,0 0.99418,0.54876 0.57968,1.21945 -0.41452,0.67069 6e-5,1.52333 0.9213,1.89473 1.10248,0.44448 0.9534,0.71127 -0.43613,0.78055 -1.16112,0.0579 -2.4948,-0.27843 -2.96376,-0.74737 z m 245.49153,-28.05818 c 0.96249,-0.38516 2.11251,-0.3378 2.55556,0.1052 0.44305,0.44306 -0.34445,0.75819 -1.75,0.7003 -1.55327,-0.064 -1.8692,-0.37992 -0.80556,-0.80555 z m -44.4752,-4.32781 c 0.48541,-0.78541 1.83103,-1.42804 2.99023,-1.42804 1.15921,0 2.94144,-1.05 3.96052,-2.33333 1.7007,-2.14175 1.82226,-2.05964 1.48032,1 -0.30344,2.71509 -1.2017,3.41272 -4.8431,3.76137 -2.92533,0.28009 -4.16549,-0.0656 -3.58797,-1 z m 12.7252,-9.95205 c 0,-0.28822 0.93116,-0.88134 2.06925,-1.31807 1.18656,-0.45532 1.72176,-0.2318 1.25464,0.52401 -0.78301,1.26695 -3.32389,1.87394 -3.32389,0.79406 z m -124.82128,-5.39811 c -0.40566,-1.05716 -0.45644,-3.00716 -0.1128,-4.33333 0.4949,-1.91002 0.65691,-1.78763 0.77943,0.58878 0.0908,1.76211 1.0124,3 2.23336,3 1.14328,0 1.70787,0.6 1.25464,1.33334 -1.19481,1.93325 -3.30137,1.63472 -4.15461,-0.58879 z m 125.32703,-1.83252 c -0.7518,-0.50161 -1.75434,-1.96203 -2.22783,-3.24536 -0.71548,-1.93923 -0.0797,-2.33333 3.76392,-2.33333 3.87608,0 4.62483,0.47489 4.62483,2.93333 0,2.28148 -0.35556,2.57777 -1.6,1.33333 -0.88,-0.88 -2.23,-1.59081 -3,-1.57958 -0.77,0.0107 -0.58595,0.53622 0.40901,1.16666 0.99496,0.63044 1.26632,1.48167 0.60301,1.89162 -0.6633,0.40994 -1.82113,0.33494 -2.57294,-0.16667 z m -48.50575,-2.10271 c 0,-0.28821 0.9,-0.86937 2,-1.29149 1.1,-0.42211 2,-0.18629 2,0.52401 0,0.71032 -0.9,1.2915 -2,1.2915 -1.1,0 -2,-0.23582 -2,-0.52402 z m -164.66666,-7.47598 c 0.45322,-0.73334 1.98864,-1.33334 3.41202,-1.33334 1.42339,0 2.58798,0.6 2.58798,1.33334 0,0.73333 -1.53542,1.33333 -3.41203,1.33333 -1.93515,0 -3.05533,-0.57712 -2.58797,-1.33333 z m 180.76038,-3 c -0.06,-2.34699 0.59779,-3.66667 1.82759,-3.66667 2.63237,0 3.27829,1.50297 2.00556,4.66667 l -1.07278,2.66666 -0.18742,-2.66666 -0.18743,-2.66667 -1.14591,2.66667 c -1.01541,2.363 -1.15657,2.24912 -1.23961,-1 z m 35.90628,0.25464 c 0,-0.77662 -0.75,-0.98859 -1.66667,-0.47106 -1.33333,0.75276 -1.33333,0.58184 0,-0.85465 0.91667,-0.98757 1.66667,-3.4756 1.66667,-5.52893 0,-2.05334 0.6,-3.73334 1.33333,-3.73334 0.73334,0 1.33334,1.75 1.33334,3.8889 0,2.13888 0.70622,4.12429 1.5694,4.41201 0.86317,0.28773 1.12776,1.23773 0.58797,2.11112 -1.21592,1.96741 -4.82404,2.09901 -4.82404,0.17595 z m -193.29278,-2.08798 c -0.0223,-1.55833 -0.41356,-4.85833 -0.86948,-7.33333 -0.76584,-4.15748 -0.67975,-4.30689 1.13106,-1.96297 2.16935,2.80802 5.02664,1.89193 5.03942,-1.61572 0.005,-1.4265 0.73981,-0.85188 2,1.56443 1.09548,2.1005 1.97052,5.1005 1.94453,6.66667 l -0.0472,2.84759 -1.61943,-2.91235 c -2.06392,-3.71172 -3.94036,-4.37782 -4.35594,-1.54626 -0.17824,1.21442 -0.96719,3.31442 -1.75323,4.66666 -1.3408,2.30662 -1.43165,2.28346 -1.46969,-0.37472 z m 117.67241,0.36111 c 0.72648,-2.17941 3.62037,-2.60128 3.62037,-0.52777 0,1.03889 -0.91666,1.88889 -2.03704,1.88889 -1.12037,0 -1.83286,-0.61251 -1.58333,-1.36112 z m 22.28704,-2.19444 c 0,-0.73333 0.6,-1.33333 1.33333,-1.33333 0.73333,0 1.33333,0.6 1.33333,1.33333 0,0.73333 -0.6,1.33333 -1.33333,1.33333 -0.73333,0 -1.33333,-0.6 -1.33333,-1.33333 z m -10.66667,-4.58798 c 0,-1.14327 0.6,-2.07869 1.33334,-2.07869 0.73333,0 1.33333,0.56459 1.33333,1.25465 0,0.69005 -0.6,1.62546 -1.33333,2.07869 -0.73334,0.45322 -1.33334,-0.11134 -1.33334,-1.25465 z M 214.06262,125.17771 c -0.0999,-1.58889 -0.93158,-3.15675 -1.84824,-3.48413 -0.91667,-0.32738 -1.3493,-0.94476 -0.96139,-1.37195 1.56377,-1.72215 4.15829,1.57242 3.59295,4.56242 -0.55362,2.92804 -0.61627,2.95152 -0.78332,0.29366 z m 115.04634,0.42832 c -0.874,-2.2776 0.11973,-15.33155 1.25343,-16.46523 0.4686,-0.46859 0.85198,3.44802 0.85198,8.70357 0,9.19283 -0.64449,11.56876 -2.10541,7.76166 z m -20.56125,-2.87277 c 0,-1.83333 0.5168,-3.33333 1.14844,-3.33333 0.63164,0 0.86169,1.5 0.51123,3.33333 -0.35047,1.83333 -0.86726,3.33333 -1.14844,3.33333 -0.28118,0 -0.51123,-1.5 -0.51123,-3.33333 z m -79.97959,1.07869 c 0.0112,-0.59328 0.60204,-1.97869 1.31292,-3.07869 1.11387,-1.72358 1.29532,-1.68839 1.31292,0.25465 0.0112,1.24005 -0.57958,2.62546 -1.31292,3.07868 -0.73333,0.45323 -1.32414,0.33864 -1.31292,-0.25464 z m -52.02041,-1.58798 c 0,-0.73333 0.6,-1.70415 1.33333,-2.15738 0.73334,-0.45322 1.33334,-0.22404 1.33334,0.50929 0,0.73334 -0.6,1.70416 -1.33334,2.15738 -0.73333,0.45323 -1.33333,0.22405 -1.33333,-0.50929 z m 138.66667,-1.49071 c 0,-0.73333 0.9,-1.33333 2,-1.33333 1.1,0 2,0.6 2,1.33333 0,0.73333 -0.9,1.33333 -2,1.33333 -1.1,0 -2,-0.6 -2,-1.33333 z m 25.90701,-0.4282 c -1.0808,-2.81651 -0.404,-3.78168 1.72788,-2.46411 0.99014,0.61194 1.12365,1.66495 0.36645,2.89014 -1.00103,1.61968 -1.33543,1.55165 -2.09433,-0.42603 z m 45.42632,0.4282 c 0.45322,-0.73333 1.08864,-1.33333 1.41202,-1.33333 0.32339,0 0.58798,0.6 0.58798,1.33333 0,0.73333 -0.63542,1.33333 -1.41203,1.33333 -0.77661,0 -1.0412,-0.6 -0.58797,-1.33333 z M 225.38104,119.6696 c -0.36156,-0.58501 -0.12346,-1.92745 0.52896,-2.98319 0.89455,-1.44742 1.13106,-1.18581 0.96162,1.06366 -0.24382,3.23675 -0.48475,3.547 -1.49058,1.91953 z m -35.5,-4.93634 c 0,-1.1 0.23582,-2 0.52402,-2 0.28821,0 0.86937,0.9 1.29149,2 0.42211,1.1 0.18629,2 -0.52401,2 -0.71032,0 -1.2915,-0.9 -1.2915,-2 z m 72,-0.66667 c 0,-0.73333 0.6,-1.33333 1.33334,-1.33333 0.73333,0 1.33333,0.6 1.33333,1.33333 0,0.73334 -0.6,1.33334 -1.33333,1.33334 -0.73334,0 -1.33334,-0.6 -1.33334,-1.33334 z m -30,-14.666662 c 0.45323,-0.73333 1.42404,-1.33333 2.15738,-1.33333 0.73333,0 0.96252,0.6 0.50929,1.33333 -0.45323,0.733342 -1.42404,1.333342 -2.15737,1.333342 -0.73334,0 -0.96252,-0.6 -0.5093,-1.333342 z m 97.59964,0.33334 c -1.02836,-1.84377 -0.60665,-21.710968 0.47501,-22.379479 0.58763,-0.36317 1.26122,4.750019 1.49688,11.362639 0.38064,10.68099 -0.23641,14.128442 -1.97189,11.01684 z m -104.13297,-3.80001 c -0.47452,-1.23658 -0.56277,-2.54834 -0.19611,-2.915 0.36667,-0.36667 1.05492,0.34508 1.52944,1.58167 0.47452,1.23659 0.56278,2.54834 0.19611,2.91501 -0.36667,0.36667 -1.05492,-0.34509 -1.52944,-1.58168 z m -63.46667,-0.80319 c 0,-0.88175 1.94692,-3.6119 4.3265,-6.06699 4.02032,-4.14793 4.36054,-5.21389 4.80784,-15.063478 0.66726,-14.693417 2.40242,-13.369323 2.02721,1.546956 -0.26567,10.561532 -0.70939,12.604472 -3.40021,15.655112 -5.02355,5.69529 -7.76134,7.08102 -7.76134,3.9284 z m 153.54386,-1.06347 c 0,-1.83334 0.30264,-2.58334 0.67252,-1.66667 0.36988,0.91667 0.36988,2.41667 0,3.33333 -0.36988,0.91667 -0.67252,0.16667 -0.67252,-1.66666 z m -299.543851,0 c -0.45322,-0.73334 0.44678,-1.33334 2,-1.33334 1.55323,0 2.45323,0.6 2,1.33334 -0.45322,0.73333 -1.35322,1.33333 -2,1.33333 -0.64677,0 -1.54677,-0.6 -2,-1.33333 z m 16.63588,-0.0396 c -2.39874,-0.58972 -1.02198,-1.07842 5.03079,-1.78572 4.58333,-0.53559 8.33333,-1.15447 8.33333,-1.37529 0,-2.58726 -3.35351,-8.799421 -4.75019,-8.799421 -1.92975,0 -4.96316,-4.508869 -3.80953,-5.662503 0.37389,-0.373886 -0.0185,-3.452775 -0.87186,-6.841978 l -1.55166,-6.162158 h -17.39727 c -9.5684904,0 -17.00392539,-0.393333 -16.52318539,-0.874073 0.48073999,-0.480742 8.23073499,-0.930742 17.22221539,-1 15.5031,-0.119418 16.33553,-0.26377 16.10402,-2.792594 -1.75565,-19.177122 -4.62099,-48.662962 -4.95601,-50.9999988 -0.25505,-1.779113 0.26787,-3 1.28494,-3 1.20246,0 1.99834,3.6218189 2.66304,12.1187268 0.57665,7.371368 1.38453,11.419321 2.0623,10.333333 0.66555,-1.066399 0.8531,0.09392 0.46571,2.881273 -0.35671,2.566667 0.19151,9.766667 1.21827,16 1.02675,6.233333 1.93561,9.983333 2.01969,8.333333 0.27988,-5.492888 2.37508,-3.092269 2.37508,2.721299 0,3.146714 0.74128,6.896714 1.64729,8.333333 1.52378,2.416192 1.58963,2.362112 0.87825,-0.721299 -0.42298,-1.833333 -1.08793,-14.133333 -1.47768,-27.333333 -0.38975,-13.199999 -0.94723,-25.949999 -1.23886,-28.3333329 -0.37944,-3.1009739 0.007,-4.3333329 1.36053,-4.3333329 2.63144,0 3.0159,2.885231 3.81982,28.6666668 0.38873,12.466666 1.08051,23.960732 1.53728,25.54237 0.79709,2.760042 1.61653,2.886698 20.37415,3.149086 10.74901,0.150362 26.87922,0.446367 35.844901,0.65779 8.96567,0.211422 18.41567,-0.09248 21,-0.67534 3.15996,-0.712688 4.69876,-0.581744 4.69876,0.399841 0,0.916223 0.45275,0.988041 1.21618,0.192919 0.6689,-0.696667 1.4189,-13.666967 1.66666,-28.822889 0.40363,-24.6896099 1.06759,-30.9377889 3.07436,-28.9310248 0.34312,0.343125 0.73346,14.3931248 0.86742,31.2222218 0.28025,35.210394 1.12086,46.454119 3.50872,46.931691 0.91666,0.183334 1.6849,-0.416666 1.70721,-1.333333 0.0227,-0.932864 0.63454,-0.647121 1.38968,0.649 1.58076,2.713177 -0.6273,7.934937 -3.16653,7.488397 -0.87836,-0.15446 -11.49703,0.18691 -23.59703,0.75861 -12.1,0.5717 -30.700001,1.1494 -41.333331,1.28377 -10.63334,0.13437 -20.20194,0.7826 -21.26355,1.44051 -2.25786,1.39924 -16.64327,1.85125 -21.43391,0.67348 z m 17.36412,-7.14605 c 0,-1.75209 -1.24807,-4.602094 -2.7735,-6.333335 l -2.77351,-3.147712 2.10684,3.296674 c 1.15876,1.813172 2.10684,4.663173 2.10684,6.333333 0,1.67016 0.3,3.03666 0.66667,3.03666 0.36666,0 0.66666,-1.43353 0.66666,-3.18562 z m 53.255061,1.06751 c 10.59028,-0.45276 20.48043,-1.27649 21.9781,-1.83051 2.59603,-0.96033 2.56859,-1.0556 -0.58839,-2.04239 -1.82129,-0.569292 -3.7157,-1.665624 -4.20981,-2.436296 -0.6058,-0.944885 -1.47426,-0.965131 -2.66667,-0.06216 -0.97256,0.736479 -3.56829,0.964901 -5.76829,0.507604 -3.41086,-0.708992 -3.60724,-0.953804 -1.33333,-1.662183 1.46667,-0.456902 6.41667,-1.232818 11,-1.72426 7.8669,-0.843515 8.33904,-1.091429 8.43535,-4.429278 0.0561,-1.944663 0.29313,-4.518357 0.52671,-5.719321 0.28887,-1.485252 -0.48997,-2.169564 -2.43535,-2.139774 -2.26948,0.03475 -33.129901,-0.165078 -42.193381,-0.273217 -1.1,-0.01312 -9.408,-0.484268 -18.46221,-1.046984 -9.05422,-0.56272 -17.06617,-0.649428 -17.80433,-0.19269 -0.88865,0.549858 -0.84511,1.75909 0.12888,3.579012 0.80905,1.511716 1.471,3.745676 1.471,4.964355 0,1.218679 0.95621,5.505052 2.12492,9.525273 l 2.12493,7.309499 14.20841,-0.75175 c 7.81462,-0.41346 22.87318,-1.12218 33.463461,-1.57494 z m 20.07828,-13.659671 c 0,-3.367928 1.41839,-4.478152 3.50681,-2.744912 1.44224,1.196951 1.42183,1.784528 -0.11541,3.321766 -2.50331,2.503305 -3.3914,2.352246 -3.3914,-0.576854 z m -75.443471,-0.04403 c 0.39265,-0.635326 -0.45,-2.20847 -1.87257,-3.495875 -2.51929,-2.279925 -2.54445,-2.250185 -0.96856,1.144735 1.81916,3.91897 1.85422,3.94799 2.84113,2.35114 z m -6.31238,-4.428196 c -0.42564,-1.063644 -0.74158,-0.747702 -0.80556,0.805556 -0.0579,1.405554 0.25724,2.193054 0.7003,1.75 0.44305,-0.443056 0.49042,-1.593056 0.10526,-2.555556 z M 228.54771,92.733258 c -0.78493,-1.46666 -1.12716,-2.66666 -0.76049,-2.66666 0.36666,0 1.30889,1.2 2.09382,2.66666 0.78494,1.46667 1.12716,2.66667 0.7605,2.66667 -0.36667,0 -1.3089,-1.2 -2.09383,-2.66667 z M 8.5507586,76.399928 c -0.004,-1.385604 6.3440604,-1.262432 7.2107504,0.139908 0.38747,0.626948 -1.07575,1.076948 -3.2516,1 -2.17586,-0.07695 -3.9574804,-0.589908 -3.9591504,-1.139908 z m 202.9235514,-7 c 0.0272,-2.2 0.326,-2.938581 0.66405,-1.641291 0.33806,1.29729 0.31583,3.09729 -0.0495,4 -0.36518,0.90271 -0.64176,-0.158709 -0.61459,-2.358709 z m 198.512,-0.111107 c 0.064,-1.553257 0.37992,-1.8692 0.80554,-0.805556 0.38516,0.9625 0.3378,2.1125 -0.1052,2.555556 -0.44305,0.443055 -0.75818,-0.344445 -0.70029,-1.75 z m -80.20859,-1.222226 c -1.40355,-2.430412 -1.24869,-15.164408 0.19525,-16.056816 0.78035,-0.482284 1.5289,-0.666797 1.66344,-0.410032 0.65532,1.250623 -1.19244,17.620557 -1.85869,16.466848 z m 21.45707,-0.333334 c 0.0107,-0.55 0.60204,-1.9 1.31292,-3 1.04516,-1.617278 1.2964,-1.425917 1.31292,1 0.0112,1.65 -0.57959,3 -1.31292,3 -0.73334,0 -1.32415,-0.45 -1.31292,-1 z m 28.64625,-11 c -1.79584,-0.771699 0.81663,-1.169841 8,-1.219202 5.86667,-0.04031 11.56667,0.508328 12.66667,1.219202 2.5597,1.654214 -16.81711,1.654214 -20.66667,0 z m -42,-0.524014 c 0,-0.288208 0.9,-0.869377 2,-1.291487 1.1,-0.42211 2,-0.186304 2,0.524015 0,0.710317 -0.9,1.291486 -2,1.291486 -1.1,0 -2,-0.235806 -2,-0.524014 z m 65.33333,-3.475985 c 0,-0.733334 0.6,-1.333334 1.33334,-1.333334 0.73333,0 1.33333,0.6 1.33333,1.333334 0,0.733333 -0.6,1.333333 -1.33333,1.333333 -0.73334,0 -1.33334,-0.6 -1.33334,-1.333333 z M 172.65298,49.288818 c 0.064,-1.553258 0.37992,-1.8692 0.80554,-0.805556 0.38516,0.9625 0.3378,2.1125 -0.1052,2.555556 -0.44306,0.443054 -0.75818,-0.344446 -0.70029,-1.75 z m 159.89473,-2.476867 c 0,-1.143279 0.6,-2.078689 1.33333,-2.078689 0.73333,0 1.33333,0.564589 1.33333,1.254644 0,0.690054 -0.6,1.625464 -1.33333,2.078689 -0.73333,0.453225 -1.33333,-0.11136 -1.33333,-1.254644 z m -48,-4 c 0,-1.790055 0.49144,-3.558367 1.09208,-3.929583 0.60064,-0.371217 0.83253,1.093374 0.51533,3.254644 -0.69938,4.765184 -1.60741,5.146459 -1.60741,0.674939 z M 172.80764,38.733262 c 0.0272,-2.2 0.326,-2.938582 0.66406,-1.641291 0.33805,1.297289 0.31582,3.097289 -0.0495,4 -0.36517,0.902709 -0.64176,-0.158709 -0.61459,-2.358709 z m 7.87298,-9 c -0.0731,-4.216667 0.118,-7.666667 0.4247,-7.666667 0.3067,0 1.43267,-0.335786 2.50216,-0.746192 2.95138,-1.132546 3.88595,4.919811 1.68624,10.920114 -1.63478,4.459299 -1.92222,4.707091 -2.1183,1.826078 l -0.22686,-3.333333 -1.06752,3.333333 c -0.8147,2.543937 -1.099,1.517723 -1.20042,-4.333333 z m 103.86709,6.096886 c 0,-2.71863 4.31853,-20.556126 4.84844,-20.026225 0.99689,0.996892 -2.03201,18.646243 -3.44195,20.056185 -0.98644,0.986427 -1.40649,0.977479 -1.40649,-0.02996 z m 54,-2.430219 c 0,-3.76159 1.30706,-4.39559 2.52401,-1.224284 1.23185,3.210162 0.97839,4.557617 -0.85735,4.557617 -0.91666,0 -1.66666,-1.5 -1.66666,-3.333333 z m 23.33333,1.412022 c 0,-1.143278 0.6,-2.078689 1.33333,-2.078689 0.73334,0 1.33334,0.564589 1.33334,1.254644 0,0.690055 -0.6,1.625464 -1.33334,2.078689 -0.73333,0.453225 -1.33333,-0.11136 -1.33333,-1.254644 z m 12.88531,0.921311 c -0.33298,-0.55 0.17768,-1.723272 1.13478,-2.607271 1.36394,-1.259758 1.89039,-1.215872 2.43484,0.20298 1.05631,2.752664 -2.07989,4.865012 -3.56962,2.404291 z m -99.55197,-7.120536 c 0,-6.051019 2.05072,-6.014024 2.94117,0.05307 0.36785,2.506332 -0.0661,4.213862 -1.1796,4.64114 -1.28019,0.491239 -1.76157,-0.791561 -1.76157,-4.69421 z m 56.85115,-4.546131 c -0.4221,-1.1 -0.18629,-2 0.52402,-2 0.71032,0 1.29149,0.9 1.29149,2 0,1.1 -0.23581,2 -0.52401,2 -0.28822,0 -0.86938,-0.9 -1.2915,-2 z m 3.81551,0.666667 c 0.45323,-0.733333 1.38864,-1.333333 2.07869,-1.333333 0.69006,0 1.25464,0.6 1.25464,1.333333 0,0.733333 -0.93541,1.333333 -2.07869,1.333333 -1.14328,0 -1.70787,-0.6 -1.25464,-1.333333 z M 173.21438,23.399929 c -0.45323,-0.733334 -0.18864,-1.333334 0.58797,-1.333334 0.77661,0 1.4542,-1.65 1.50575,-3.666666 0.0831,-3.249126 0.2242,-3.363001 1.23961,-1 1.78003,4.142353 1.52419,7.333333 -0.58797,7.333333 -1.05672,0 -2.29214,-0.6 -2.74536,-1.333333 z m 64.66666,-3.699088 c 0,-3.012277 0.54292,-5.812412 1.2065,-6.222524 0.68834,-0.425421 0.89588,1.688127 0.48322,4.92131 -0.95824,7.507878 -1.68972,8.071174 -1.68972,1.301214 z M 35.048619,13.399929 c -0.45783,-4.3999999 -0.60783,-8.2499998 -0.33333,-8.5555558 1.36186,-1.5159171 1.93542,1.675901 1.57015,8.7377158 l -0.40439,7.81784 z M 179.3899,13.14946 c -0.15916,-7.4814038 0.073,-8.2317428 2.49114,-8.0495928 2.3051,0.173637 2.66667,1.15672 2.66667,7.2504668 0,7.140039 -2.51883,10.138079 -2.84219,3.382928 -0.15788,-3.298042 -0.27428,-3.197507 -1.15781,1 -0.84576,4.01804 -1.00668,3.519923 -1.15781,-3.583802 z m 109.15781,-2.161359 c 0,-0.959838 0.94899,-2.9098379 2.10885,-4.3333328 1.92975,-2.3683701 2.04298,-2.3807511 1.33334,-0.145789 -0.42654,1.34331 -0.77552,3.2933099 -0.77552,4.3333328 0,1.040022 -0.6,1.89095 -1.33334,1.89095 -0.73333,0 -1.33333,-0.785322 -1.33333,-1.745161 z m -86.55253,-0.254839 c 0.13884,-2.5256309 2.36101,-6.7784649 2.4384,-4.6666658 0.0403,1.1 -0.50832,2.8999989 -1.2192,3.9999988 -0.71088,1.1 -1.25952,1.4 -1.2192,0.666667 z M 380.54771,8.7332621 c 0,-1.4666659 0.54382,-2.6666659 1.2085,-2.6666659 0.66468,0 0.89471,1.2 0.51116,2.6666659 -0.38354,1.4666669 -0.92737,2.6666669 -1.2085,2.6666669 -0.28114,0 -0.51116,-1.2 -0.51116,-2.6666669 z M 175.21438,6.6545732 c 0,-1.143279 0.6,-1.707869 1.33333,-1.254644 0.73333,0.453225 1.33333,1.388635 1.33333,2.078689 0,0.6900539 -0.6,1.2546439 -1.33333,1.2546439 -0.73333,0 -1.33333,-0.9354099 -1.33333,-2.0786889 z"
     id="path825"
     inkscape:connector-curvature="0" />
</svg>
